<?xml version="1.0" standalone="no"?>
<!DOCTYPE svg PUBLIC "-//W3C//DTD SVG 1.1//EN" "http://www.w3.org/Graphics/SVG/1.1/DTD/svg11.dtd" >
<svg xmlns="http://www.w3.org/2000/svg">
<metadata></metadata>
<defs>
<font id="segoe_semiboldregular" horiz-adv-x="1143" >
<font-face units-per-em="2048" ascent="1638" descent="-410" />
<missing-glyph horiz-adv-x="563" />
<glyph horiz-adv-x="2048" />
<glyph horiz-adv-x="2048" />
<glyph unicode="&#xd;" horiz-adv-x="565" />
<glyph unicode=" "  horiz-adv-x="563" />
<glyph unicode="&#x09;" horiz-adv-x="563" />
<glyph unicode="&#xa0;" horiz-adv-x="563" />
<glyph unicode="!" horiz-adv-x="610" d="M162 117q0 29 11 54t30.5 43.5t45.5 29t56 10.5t56 -10.5t44.5 -29.5t29.5 -43.5t11 -53.5q0 -28 -10.5 -53t-29 -44t-44.5 -29.5t-57 -10.5t-57 11t-45 30t-30 43.5t-11 52.5zM182 1434h242l-27 -1016h-188z" />
<glyph unicode="&#x22;" horiz-adv-x="874" d="M178 1440h189l-17 -445h-155zM508 1440h188l-16 -445h-158z" />
<glyph unicode="#" horiz-adv-x="1204" d="M27 502l26 137h236l55 268h-248l25 140h250l80 385h165l-77 -385h237l84 385h160l-80 -385h234l-29 -140h-234l-55 -268h254l-33 -137h-250l-84 -381h-163l82 381h-238l-82 -381h-162l80 381h-233zM451 639h241l58 268h-242z" />
<glyph unicode="$" d="M150 1049q0 74 27 139.5t76.5 117.5t118 86t152.5 44v182h125v-176q38 -1 81 -7.5t83.5 -15.5t73.5 -20t51 -23v-219q-50 37 -126 64.5t-163 33.5v-456q78 -32 148 -70t122.5 -87t83.5 -112t31 -145q0 -78 -26 -141.5t-75.5 -110.5t-121 -78t-162.5 -45v-219h-125v209 q-58 1 -114.5 10t-105.5 22.5t-86 29.5t-56 30v227q29 -27 74 -50.5t95 -41t101 -28t92 -11.5v439q-79 33 -147.5 69t-118.5 84t-79 113t-29 156zM369 1071q0 -35 7 -64t25 -54.5t48 -49t75 -47.5v393q-69 -15 -112 -61t-43 -117zM649 197q78 15 122 62t44 112 q0 60 -38.5 109t-127.5 93v-376z" />
<glyph unicode="%" horiz-adv-x="1729" d="M82 1065q0 92 26 164.5t72.5 122.5t111 76t142.5 26q75 0 135 -22.5t102.5 -67.5t65.5 -112.5t23 -157.5q0 -91 -26.5 -163t-73 -121t-110.5 -75t-140 -26q-72 0 -132 24t-103.5 69.5t-68 112t-24.5 150.5zM254 1077q0 -57 12.5 -100t35 -71t53 -42t67.5 -14 q77 0 122.5 60t45.5 175q0 60 -13 103t-35.5 71t-52.5 41t-63 13q-77 0 -124.5 -60t-47.5 -176zM295 0l942 1434h188l-942 -1434h-188zM969 336q0 93 26 165.5t72.5 122t111 75.5t142.5 26q75 0 135 -22.5t102.5 -67.5t65.5 -112.5t23 -157.5q0 -91 -26.5 -163t-73 -121 t-111 -75t-140.5 -26q-71 0 -131 24.5t-103.5 70t-68 111.5t-24.5 150zM1141 348q0 -115 47 -171t121 -56q77 0 123.5 60t46.5 177q0 60 -13.5 103t-36.5 70t-53 40t-63 13q-78 0 -125 -60t-47 -176z" />
<glyph unicode="&#x26;" horiz-adv-x="1466" d="M102 365q0 56 15 103.5t40.5 88t59 74t69.5 61t73 49.5t69 39q-28 35 -54.5 73t-47.5 79.5t-34 86.5t-13 95q0 76 29.5 139.5t82.5 109t126 70.5t159 25q91 0 159 -25.5t113.5 -68.5t68.5 -98.5t23 -114.5q0 -71 -19 -126t-57.5 -100t-96 -83.5t-134.5 -77.5 q29 -31 70.5 -75.5t86.5 -92.5t88.5 -93.5t76.5 -78.5q15 20 32 54.5t31.5 79.5t24.5 97t10 107h201q0 -72 -13.5 -140.5t-37.5 -129.5t-56 -113.5t-69 -93.5l272 -285h-295l-129 135q-34 -28 -79.5 -57t-103 -51.5t-126 -37t-148.5 -14.5q-119 0 -207 32t-145.5 86 t-86 124.5t-28.5 147.5zM332 379q0 -57 21.5 -99t56.5 -69.5t78.5 -41t86.5 -13.5q62 0 111 8.5t88.5 23.5t71 35t59.5 43q-32 35 -79 85t-98 103.5t-100 106.5t-87 94q-42 -23 -79.5 -48t-66.5 -57.5t-46 -74t-17 -96.5zM492 1116q0 -32 12 -63.5t30.5 -61t42 -57.5 t46.5 -53q49 24 89 51t68 58t43 66t15 77q0 34 -13.5 62.5t-35.5 49.5t-50.5 33t-58.5 12q-87 0 -137.5 -46.5t-50.5 -127.5z" />
<glyph unicode="'" horiz-adv-x="520" d="M166 1440h188l-16 -445h-156z" />
<glyph unicode="(" horiz-adv-x="676" d="M141 549q0 134 20 254t60 229t99.5 208.5t138.5 193.5h196q-82 -105 -140.5 -209t-96 -212t-55 -223t-17.5 -241q0 -233 74 -454t235 -421h-196q-85 94 -145 198.5t-98.5 215t-56.5 227t-18 234.5z" />
<glyph unicode=")" horiz-adv-x="676" d="M20 -326q160 195 236 416.5t76 458.5q0 127 -18 242t-55.5 223.5t-96.5 212t-142 207.5h197q79 -94 138.5 -193.5t99.5 -208.5t60 -229t20 -254q0 -118 -18 -234.5t-56.5 -227t-99 -215t-144.5 -198.5h-197z" />
<glyph unicode="*" horiz-adv-x="887" d="M76 1081l59 162l250 -102l-31 293h181l-31 -293l250 102l59 -162l-268 -45l188 -225l-143 -98l-146 256l-143 -256l-145 98l190 225z" />
<glyph unicode="+" horiz-adv-x="1438" d="M240 510v168h395v397h170v-397h395v-168h-395v-395h-170v395h-395z" />
<glyph unicode="," horiz-adv-x="479" d="M37 -266l102 502h217l-151 -502h-168z" />
<glyph unicode="-" horiz-adv-x="823" d="M141 469v170h547v-170h-547z" />
<glyph unicode="." horiz-adv-x="479" d="M94 113q0 30 11.5 55.5t31.5 44t46.5 29t56.5 10.5q31 0 57 -11t45 -29.5t30 -44t11 -54.5t-11 -54.5t-30 -44t-45.5 -29t-58.5 -10.5q-30 0 -56 11t-45.5 30t-31 44t-11.5 53z" />
<glyph unicode="/" horiz-adv-x="850" d="M-35 -238l688 1672h213l-688 -1672h-213z" />
<glyph unicode="0" d="M78 690q0 203 37 348.5t104.5 238.5t162 137t208.5 44q111 0 199 -41t149.5 -129.5t94 -227.5t32.5 -335q0 -194 -37.5 -335.5t-104.5 -233.5t-160 -136.5t-204 -44.5q-105 0 -193.5 41t-152 127.5t-99.5 222t-36 324.5zM313 696q0 -141 18.5 -242t53 -165.5t82.5 -94.5 t108 -30q56 0 102.5 30t79.5 95t51.5 168.5t18.5 251.5h2q0 162 -18 270t-51 172.5t-79 91.5t-101 27q-60 0 -109 -31t-84.5 -100t-54.5 -178t-19 -265z" />
<glyph unicode="1" d="M172 1110v207l551 141v-1263h313v-195h-860v195h316v995z" />
<glyph unicode="2" d="M104 0v190l424 414q83 81 134 141.5t79 110t37.5 92.5t9.5 88q0 105 -63 167.5t-182 62.5q-49 0 -99 -12.5t-97.5 -34.5t-91 -51.5t-79.5 -63.5v225q29 23 73 45.5t98 41.5t115 30.5t124 11.5q109 0 191 -30.5t136.5 -83.5t81.5 -126t27 -157q0 -65 -17 -129t-56 -131.5 t-101 -141t-152 -157.5l-315 -295v-4h627v-203h-904z" />
<glyph unicode="3" d="M141 53v228q37 -30 81 -52t89 -36.5t89 -21.5t81 -7q66 0 120.5 16.5t93 47t60 75t21.5 100.5q0 116 -94 178t-268 62h-125v191h119q84 0 144.5 17t99.5 47t57 71.5t18 89.5q0 44 -14 82.5t-44 67t-77 45t-113 16.5q-83 0 -156.5 -30.5t-127.5 -72.5v211q21 12 54.5 26 t77 26t97 20t115.5 8q108 0 188 -29.5t132.5 -78t78 -111.5t25.5 -131q0 -61 -15.5 -116.5t-50 -102t-88.5 -81.5t-131 -56v-4q78 -9 140.5 -37.5t106 -73t66.5 -102.5t23 -125q0 -97 -37 -177t-105.5 -137.5t-167 -89t-221.5 -31.5q-45 0 -94 5.5t-95 16t-86 24.5t-67 32z " />
<glyph unicode="4" d="M18 350v146l619 938h266v-908h178v-176h-178v-350h-225v350h-660zM244 526h434v549q0 35 2 76.5t4 73.5h-4q-9 -23 -21.5 -55t-33.5 -64z" />
<glyph unicode="5" d="M166 39v223q59 -40 140 -69t171 -29q71 0 127.5 19.5t96 55.5t60.5 86t21 111q0 53 -20 100t-61.5 81.5t-105 54.5t-151.5 20q-34 0 -68 -2t-64.5 -4.5t-56.5 -4.5t-44 -3v756h743v-201h-530v-352q23 2 54 3t57 1q124 0 215 -34.5t150.5 -93.5t88.5 -138t29 -168 q0 -97 -33.5 -183.5t-100 -151.5t-166 -103t-231.5 -38q-53 0 -103 6t-92 15.5t-75 21t-51 21.5z" />
<glyph unicode="6" d="M102 635q0 200 47.5 353.5t130.5 257.5t195 158t242 54q80 0 147 -11t107 -30v-209q-50 26 -109 44t-133 18q-84 0 -155 -36t-123 -105t-81 -169.5t-30 -228.5h6q21 38 52.5 69.5t70.5 55t86 36.5t100 13q94 0 169.5 -30.5t129 -88t82.5 -139.5t29 -186 q0 -108 -35.5 -197t-98.5 -153.5t-149.5 -100t-187.5 -35.5q-108 0 -198.5 42t-156 125t-101.5 206.5t-36 286.5zM350 469q0 -51 14.5 -104.5t44.5 -97.5t76.5 -72.5t110.5 -28.5q57 0 101 21t73.5 58t45 87.5t15.5 109.5q0 62 -14.5 113t-44 87.5t-74 56.5t-104.5 20 t-105.5 -21.5t-76.5 -56.5t-46.5 -80t-15.5 -92z" />
<glyph unicode="7" d="M88 1233v201h965v-88l-545 -1346h-244l522 1233h-698z" />
<glyph unicode="8" d="M92 360q0 125 72.5 227t226.5 165v4q-128 57 -189 144t-61 194q0 80 33 147t92.5 115t141.5 75t180 27q96 0 173.5 -26.5t132.5 -72.5t84.5 -109t29.5 -136q0 -115 -61 -202.5t-199 -155.5v-4q77 -26 134.5 -66t95.5 -89.5t56.5 -106t18.5 -115.5q0 -91 -33.5 -164.5 t-98 -126t-159 -81t-217.5 -28.5q-97 0 -179.5 27.5t-143.5 77.5t-95.5 121.5t-34.5 158.5zM322 373q0 -48 19.5 -87.5t54 -67.5t81 -43t101.5 -15q53 0 98 15t77.5 42t51 65t18.5 85q0 97 -63 166.5t-197 117.5q-48 -18 -92 -44.5t-77 -61.5t-52.5 -78t-19.5 -94zM373 1090 q0 -81 52.5 -142.5t149.5 -101.5q106 45 154.5 107t48.5 137q0 45 -15 79.5t-42 57.5t-63 35t-78 12t-80 -13t-66 -37t-44.5 -58t-16.5 -76z" />
<glyph unicode="9" d="M86 969q0 112 37 202.5t102 154t153 98t191 34.5q97 0 183.5 -36.5t152 -116t104 -205.5t38.5 -305q0 -215 -46.5 -370t-128 -255t-191 -147.5t-235.5 -47.5q-41 0 -82.5 5t-79 12.5t-68 17.5t-50.5 19v209q21 -13 52 -26.5t68 -24t76 -17t76 -6.5q86 0 155 33t118 97.5 t75.5 160.5t26.5 223h-2q-2 0 -2 2q-18 -31 -47.5 -60t-67.5 -50.5t-84.5 -34.5t-99.5 -13q-90 0 -167.5 31.5t-134.5 89.5t-89.5 141t-32.5 185zM319 993q0 -67 18.5 -119.5t51.5 -88t79.5 -54t102.5 -18.5q50 0 92.5 18.5t73.5 50t48.5 74.5t17.5 92h2q0 72 -18.5 131 t-51.5 101t-78.5 65t-99.5 23q-48 0 -91.5 -19.5t-76 -55.5t-51.5 -87t-19 -113z" />
<glyph unicode=":" horiz-adv-x="479" d="M94 113q0 30 11.5 55.5t31.5 44t46.5 29t56.5 10.5q31 0 57 -11t45 -29.5t30 -44t11 -54.5t-11 -54.5t-30 -44t-45.5 -29t-58.5 -10.5q-30 0 -56 11t-45.5 30t-31 44t-11.5 53zM94 907q0 29 11.5 54t31.5 43.5t46.5 29t56.5 10.5q31 0 57 -10.5t45 -29t30 -43.5t11 -54 t-11 -54t-30 -43.5t-45.5 -29t-58.5 -10.5q-30 0 -56 10.5t-45.5 29.5t-31 44t-11.5 53z" />
<glyph unicode=";" horiz-adv-x="479" d="M37 -266l102 502h217l-151 -502h-168zM96 907q0 29 11.5 54t31 43.5t46 29t57.5 10.5t57 -10.5t45 -29t30 -43.5t11 -54t-11 -54t-30 -43.5t-45.5 -29t-58.5 -10.5q-30 0 -56 10.5t-45.5 29.5t-31 44t-11.5 53z" />
<glyph unicode="&#x3c;" horiz-adv-x="1438" d="M274 530v105l891 473v-193l-641 -325v-4l641 -295v-193z" />
<glyph unicode="=" horiz-adv-x="1438" d="M240 289v170h960v-170h-960zM240 729v170h960v-170h-960z" />
<glyph unicode="&#x3e;" horiz-adv-x="1438" d="M274 100v195l641 291v4l-641 328v194l891 -473v-104z" />
<glyph unicode="?" horiz-adv-x="924" d="M125 1133v237q75 47 153 69.5t173 22.5q98 0 171.5 -27.5t123.5 -75.5t75 -113t25 -140q0 -58 -12.5 -108t-36.5 -95.5t-60 -87t-84 -82.5q-50 -42 -80.5 -73t-47 -58.5t-22 -55t-5.5 -63.5v-69h-203v82q0 50 9.5 92t30 79.5t51.5 72.5t73 69q43 35 74 67t51 64.5 t29.5 66.5t9.5 74q0 39 -14.5 73.5t-41 59.5t-64 39.5t-83.5 14.5q-84 0 -158 -35t-137 -100zM254 117q0 29 11.5 54t31 43.5t46 29t56.5 10.5t56 -10.5t45 -29.5t30 -43.5t11 -53.5q0 -28 -11 -53t-30 -44t-45 -29.5t-56 -10.5q-31 0 -57.5 11t-46 30t-30.5 43.5t-11 52.5z " />
<glyph unicode="@" horiz-adv-x="1962" d="M162 598q0 118 27 227t78 204t125.5 173t168.5 133.5t207 86t242 30.5q164 0 308.5 -49t253 -140.5t171.5 -223.5t63 -298q0 -139 -38 -244t-99.5 -176t-139 -107t-157.5 -36q-106 0 -162.5 60t-56.5 163h-4q-16 -54 -43.5 -95t-63.5 -69t-79 -42.5t-91 -14.5 q-62 0 -117.5 23t-97 70t-66 117.5t-24.5 164.5q0 111 30.5 206.5t85.5 165t131.5 109t168.5 39.5q36 0 67.5 -9t56.5 -25.5t42.5 -39.5t24.5 -51h4l10 109h168q-1 -19 -5 -62.5t-9 -99.5t-10.5 -118t-10 -117t-7.5 -97t-3 -59q0 -55 7 -90t19.5 -55.5t30.5 -28.5t39 -8 q43 0 83 27t70.5 79t49 126.5t18.5 168.5q0 66 -14 135t-45 133.5t-79.5 121.5t-117.5 99.5t-159 67.5t-205 25q-144 0 -266.5 -54t-211 -148.5t-138.5 -223t-50 -277.5q0 -142 44.5 -261t129 -204.5t206 -133.5t275.5 -48q69 0 128 6t110 16.5t95.5 26t84.5 33.5v-156 q-28 -12 -68.5 -25t-94 -23t-121 -16.5t-150.5 -6.5q-180 0 -330 55.5t-259 158.5t-169.5 248t-60.5 324zM750 551q0 -57 13.5 -99.5t36 -71t52.5 -42.5t63 -14q60 0 104.5 32t74.5 87.5t44.5 131t14.5 162.5q0 51 -12.5 87.5t-34.5 60.5t-51 35.5t-62 11.5 q-61 0 -106.5 -35t-76 -90t-45.5 -123t-15 -133z" />
<glyph unicode="A" horiz-adv-x="1368" d="M8 0l543 1434h264l545 -1434h-262l-131 362h-574l-125 -362h-260zM459 563h440l-197 553q-4 10 -7 24.5t-6 29.5t-4.5 28t-2.5 21h-6q-1 -9 -2.5 -21.5t-4.5 -27t-6.5 -28.5t-7.5 -26z" />
<glyph unicode="B" horiz-adv-x="1237" d="M182 0v1434h453q114 0 198 -26.5t138.5 -71.5t81 -105t26.5 -127q0 -60 -19 -112.5t-53 -95t-81.5 -74.5t-104.5 -50v-4q75 -10 135.5 -38.5t103 -73.5t65 -105t22.5 -133q0 -100 -39 -177.5t-106.5 -131t-158 -81.5t-192.5 -28h-469zM420 197h201q69 0 120.5 17.5 t85.5 48t51 72t17 89.5q0 102 -74.5 160.5t-220.5 58.5h-180v-446zM420 840h153q121 0 187.5 57t66.5 162q0 85 -64 131.5t-188 46.5h-155v-397z" />
<glyph unicode="C" horiz-adv-x="1272" d="M84 688q0 177 58 319.5t158.5 242.5t237 154t293.5 54q50 0 100 -4.5t95.5 -12t85.5 -18.5t68 -24v-242q-73 43 -161 66.5t-181 23.5q-106 0 -198 -36t-160 -105t-107 -170.5t-39 -233.5q0 -120 34 -215.5t96.5 -162t150.5 -102.5t196 -36q105 0 197.5 25.5t171.5 75.5 v-226q-37 -20 -84.5 -36t-100.5 -27t-110 -17t-113 -6q-165 0 -293 53.5t-216 148.5t-133.5 226t-45.5 285z" />
<glyph unicode="D" horiz-adv-x="1477" d="M182 0v1434h443q384 0 576 -178t192 -521q0 -166 -55 -302t-157 -232t-246 -148.5t-321 -52.5h-432zM420 205h192q129 0 228 37.5t165.5 106t101 165.5t34.5 217q0 119 -34 211.5t-100.5 156t-164.5 97t-226 33.5h-196v-1024z" />
<glyph unicode="E" horiz-adv-x="1059" d="M182 0v1434h776v-205h-538v-404h500v-204h-500v-416h571v-205h-809z" />
<glyph unicode="F" horiz-adv-x="1034" d="M182 0v1434h776v-205h-538v-424h498v-205h-498v-600h-238z" />
<glyph unicode="G" horiz-adv-x="1434" d="M84 696q0 115 26.5 216.5t75.5 186t118.5 151.5t154.5 113t184.5 70.5t208.5 24.5q68 0 130 -7t114.5 -17.5t93 -23t65.5 -24.5v-245q-34 23 -79 43t-98 35t-113.5 23.5t-126.5 8.5q-104 0 -195.5 -37t-159.5 -106.5t-107.5 -169.5t-39.5 -227q0 -135 37 -234.5 t101.5 -165t152.5 -97.5t190 -32q66 0 129 14t113 40v339h-297v205h536v-682q-102 -59 -230.5 -91t-268.5 -32q-157 0 -288.5 49.5t-226.5 142.5t-147.5 226.5t-52.5 302.5z" />
<glyph unicode="H" horiz-adv-x="1511" d="M182 0v1434h238v-603h670v603h239v-1434h-239v621h-670v-621h-238z" />
<glyph unicode="I" horiz-adv-x="602" d="M182 0v1434h238v-1434h-238z" />
<glyph unicode="J" horiz-adv-x="811" d="M27 8v230q15 -12 34.5 -22t41 -16.5t43.5 -10t42 -3.5q45 0 84.5 18.5t68.5 60.5t45.5 109.5t16.5 164.5v895h238v-897q0 -145 -35 -251t-96 -175t-142 -102.5t-173 -33.5q-44 0 -90.5 9t-77.5 24z" />
<glyph unicode="K" horiz-adv-x="1266" d="M182 0v1434h238v-676h4q11 17 20.5 32.5t20.5 30.5l477 613h291l-574 -684l617 -750h-318l-493 635q-12 17 -21 32.5t-20 32.5h-4v-700h-238z" />
<glyph unicode="L" horiz-adv-x="1001" d="M182 0v1434h238v-1229h561v-205h-799z" />
<glyph unicode="M" horiz-adv-x="1915" d="M182 0v1434h340l365 -906q8 -20 17.5 -47.5t19.5 -55.5t17.5 -53.5t10.5 -41.5h6q6 17 16 43t20.5 54t21 55.5t18.5 47.5l375 904h326v-1434h-236v913q0 50 1.5 98t3 89t4 72.5t3.5 48.5h-4q-3 -16 -7.5 -37.5t-10 -44t-11.5 -43t-12 -35.5l-434 -1061h-155l-437 1051 q-4 12 -10 34.5t-11.5 47.5t-11 49t-8.5 39h-6q2 -19 3.5 -57t3 -85t2.5 -98.5t1 -97.5v-883h-221z" />
<glyph unicode="N" horiz-adv-x="1585" d="M182 0v1434h301l633 -1037q6 -10 14.5 -23.5t17 -28t16 -28l12.5 -22.5h4q-2 11 -4 43.5t-3.5 70t-2.5 71t-1 46.5v908h234v-1434h-285l-657 1061q-7 10 -15 23t-15 26.5t-12.5 26.5t-8.5 22h-7q3 -12 5 -44t4 -68t3 -68.5t1 -46.5v-932h-234z" />
<glyph unicode="O" horiz-adv-x="1542" d="M84 698q0 165 46.5 304t136.5 240.5t221 158.5t300 57q149 0 273 -52t212.5 -147t137.5 -229.5t49 -298.5q0 -173 -49.5 -312.5t-141 -238t-219.5 -152t-286 -53.5q-153 0 -278.5 53t-214.5 148t-138 228.5t-49 293.5zM336 717q0 -125 33 -223.5t91 -167t137 -104.5 t171 -36q98 0 178.5 33.5t139 99t90.5 163.5t32 227q0 133 -30.5 233.5t-87 168t-135.5 102t-177 34.5q-102 0 -184 -39t-139 -109.5t-88 -167.5t-31 -214z" />
<glyph unicode="P" horiz-adv-x="1194" d="M182 0v1434h443q129 0 225 -31t160 -89t95.5 -140.5t31.5 -184.5q0 -97 -36 -183.5t-106 -150.5t-172 -101.5t-233 -37.5h-170v-516h-238zM420 717h153q148 0 231 67t83 197q0 58 -18.5 104.5t-56.5 79.5t-94.5 50.5t-133.5 17.5h-164v-516z" />
<glyph unicode="Q" horiz-adv-x="1542" d="M84 698q0 159 45 297.5t134 241.5t221.5 162t308.5 59q146 0 268.5 -52t211 -147t138 -229.5t49.5 -298.5q0 -141 -32 -259t-93 -209.5t-149 -155.5t-199 -97l367 -364h-322l-282 329q-145 2 -267.5 54t-211 146.5t-138 227t-49.5 295.5zM336 717q0 -124 32.5 -223 t90.5 -167t137 -104.5t172 -36.5q98 0 178.5 33.5t139 99t90.5 163.5t32 227q0 131 -30 231t-86 168.5t-135.5 103.5t-178.5 35q-102 0 -184 -39t-139 -109.5t-88 -167.5t-31 -214z" />
<glyph unicode="R" horiz-adv-x="1231" d="M182 0v1434h463q119 0 207.5 -28t147.5 -79t88.5 -122t29.5 -158q0 -77 -22.5 -142t-63.5 -115.5t-99.5 -85.5t-129.5 -53v-4q25 -8 48.5 -27t44.5 -43.5t38.5 -52.5t30.5 -55l219 -469h-283l-174 414q-38 91 -89 129.5t-108 38.5h-110v-582h-238zM420 782h186 q61 0 109.5 19t82.5 51.5t52 76.5t18 95q0 48 -16 86.5t-48.5 66.5t-80.5 43t-113 15h-190v-453z" />
<glyph unicode="S" horiz-adv-x="1044" d="M106 1057q0 87 34.5 161t98.5 127t153.5 83t199.5 30q48 0 96 -5t90 -13.5t74.5 -18t50.5 -18.5v-250q-29 24 -65.5 43t-76.5 32t-82.5 20t-84.5 7q-55 0 -98.5 -13.5t-73.5 -37.5t-46 -57t-16 -72q0 -44 12.5 -78t42 -64.5t77.5 -60.5t118 -67q86 -45 152.5 -91.5 t111.5 -97.5t68 -109t23 -128q0 -78 -27 -150.5t-88 -129t-158.5 -90.5t-238.5 -34q-45 0 -95 7t-97 19t-86.5 27t-63.5 31v260q35 -33 80.5 -59t94.5 -44.5t98.5 -28t94.5 -9.5q69 0 114 16t70.5 41.5t35.5 57.5t10 63q0 41 -16 76t-50 68.5t-88 68t-129 74.5 q-91 48 -152.5 96.5t-99 99t-53 104.5t-15.5 114z" />
<glyph unicode="T" horiz-adv-x="1124" d="M31 1229v205h1063v-205h-412v-1229h-240v1229h-411z" />
<glyph unicode="U" horiz-adv-x="1454" d="M164 575v859h239v-854q0 -104 22.5 -178.5t65.5 -122.5t104 -70.5t138 -22.5q70 0 128.5 19t100.5 63.5t65.5 117t23.5 179.5v869h239v-840q0 -318 -146.5 -468.5t-426.5 -150.5q-130 0 -232.5 35.5t-173.5 109t-109 186.5t-38 269z" />
<glyph unicode="V" horiz-adv-x="1313" d="M8 1434h262l359 -1088q11 -29 18 -64.5t10 -64.5h5q3 28 10 64.5t18 68.5l363 1084h250l-510 -1434h-275z" />
<glyph unicode="W" horiz-adv-x="1985" d="M16 1434h260l267 -1039q5 -17 8 -37t5.5 -41t4 -41t2.5 -36h6q1 15 3.5 35t6.5 41.5t8.5 42.5t8.5 38l289 1037h254l274 -1049q8 -28 14 -68.5t9 -74.5h4q1 16 3 36t5 40t6 39t6 34l258 1043h250l-393 -1434h-281l-270 999q-4 15 -7.5 34.5t-6.5 40t-5.5 40.5t-3.5 37h-4 q-1 -16 -4 -36.5l-6 -41t-6.5 -40t-7.5 -34.5l-268 -999h-285z" />
<glyph unicode="X" horiz-adv-x="1270" d="M10 0l479 719l-438 715h293l256 -471q23 -43 32.5 -65t16.5 -42h4q10 23 21.5 52.5t30.5 60.5l276 465h268l-448 -711l454 -723h-286l-303 522q-10 19 -14.5 36t-10.5 36h-4q-8 -20 -13 -36.5t-16 -35.5l-309 -522h-289z" />
<glyph unicode="Y" horiz-adv-x="1178" d="M0 1434h270l289 -598q14 -29 20.5 -53t12.5 -40h2q5 22 12.5 43.5t20.5 47.5l299 600h252l-476 -914v-520h-237v514z" />
<glyph unicode="Z" horiz-adv-x="1192" d="M27 0v98l790 1131h-729v205h1069v-88l-790 -1141h776v-205h-1116z" />
<glyph unicode="[" horiz-adv-x="676" d="M203 -326v1760h415v-156h-217v-1448h217v-156h-415z" />
<glyph unicode="\" horiz-adv-x="823" d="M-16 1434h213l665 -1674h-209z" />
<glyph unicode="]" horiz-adv-x="676" d="M59 -170h215v1448h-215v156h414v-1760h-414v156z" />
<glyph unicode="^" horiz-adv-x="1438" d="M213 596l434 862h105l477 -862h-197l-323 610h-7l-296 -610h-193z" />
<glyph unicode="_" horiz-adv-x="850" d="M0 -178h850v-119h-850v119z" />
<glyph unicode="`" horiz-adv-x="594" d="M74 1544h223l231 -325h-170z" />
<glyph unicode="a" horiz-adv-x="1034" d="M68 279q0 66 19 123t59.5 101.5t104 74t152.5 40.5l299 41q0 110 -50.5 159.5t-143.5 49.5t-182 -31t-158 -83v204q22 14 62 30t90 29.5t105 22.5t107 9q102 0 176.5 -27t123 -78.5t72.5 -125.5t24 -169v-649h-228v141h-4q-52 -81 -127.5 -123.5t-175.5 -42.5 q-78 0 -139 22.5t-102 62.5t-62.5 96t-21.5 123zM295 303q0 -31 12 -58t34 -46t53.5 -30t70.5 -11q54 0 97.5 19.5t74.5 53t48 78.5t17 97v92l-221 -29q-57 -7 -93 -21t-56.5 -35t-28.5 -48t-8 -62z" />
<glyph unicode="b" horiz-adv-x="1235" d="M158 0v1516h231v-656h4q27 42 60.5 76.5t75 59.5t92.5 39t112 14q110 0 189.5 -41t130.5 -111t75.5 -162.5t24.5 -195.5q0 -121 -30.5 -224.5t-90 -179t-147 -118t-201.5 -42.5q-53 0 -97 11.5t-80 32.5t-64 49t-50 61h-4v-129h-231zM387 422q0 -54 18.5 -101t51.5 -82 t78.5 -55t99.5 -20q64 0 115.5 24t87.5 71t55.5 118.5t19.5 165.5q0 73 -17 131.5t-50 100t-80.5 63.5t-108.5 22q-60 0 -109.5 -22t-85 -62t-55.5 -95.5t-20 -123.5v-135z" />
<glyph unicode="c" horiz-adv-x="963" d="M82 485q0 128 38.5 232t110.5 177.5t174.5 114t229.5 40.5q41 0 78 -5t69 -12.5t57.5 -16.5t41.5 -18v-219q-50 37 -108.5 59.5t-127.5 22.5q-68 0 -127 -23.5t-102.5 -68.5t-68.5 -111t-25 -151q0 -79 22 -142.5t63 -107.5t100 -68t134 -24q30 0 62 7t63.5 18.5t60.5 27 t54 33.5v-207q-53 -31 -124 -49.5t-167 -18.5q-116 0 -210 38.5t-160 107t-102 162t-36 202.5z" />
<glyph unicode="d" horiz-adv-x="1235" d="M82 487q0 128 33.5 232t95 177.5t148 113t192.5 39.5q54 0 99 -11.5t81 -32t64 -48.5t47 -60h4v619h231v-1516h-231v160h-4q-25 -42 -57.5 -76t-73.5 -58t-92 -37.5t-113 -13.5q-91 0 -168.5 33t-134.5 98t-89 160.5t-32 220.5zM322 494q0 -83 20 -145t55 -103t83 -61.5 t104 -20.5q54 0 102 22.5t84 63.5t57 100.5t21 132.5v115q0 54 -19.5 102t-53 83.5t-79.5 56t-100 20.5q-68 0 -119.5 -26t-86 -74t-51.5 -115.5t-17 -150.5z" />
<glyph unicode="e" horiz-adv-x="1079" d="M82 502q0 141 43.5 244t113.5 170.5t156.5 100t173.5 32.5q112 0 196 -36t139.5 -100.5t83.5 -155t28 -198.5v-115h-697q7 -139 85.5 -212.5t222.5 -73.5q86 0 167 27.5t140 70.5v-195q-20 -13 -54 -28t-80.5 -28t-104.5 -21.5t-124 -8.5q-114 0 -204.5 34.5 t-153.5 101.5t-97 165.5t-34 225.5zM319 618h467q0 53 -12 99t-38.5 79.5t-67.5 52.5t-99 19q-47 0 -88.5 -18t-74.5 -51t-55.5 -79t-31.5 -102z" />
<glyph unicode="f" horiz-adv-x="711" d="M55 838v186h172v150q0 85 28.5 153t78 115t117 72.5t145.5 25.5q38 0 75.5 -5t59.5 -13v-195q-20 9 -48 17t-62 8q-76 0 -118 -48.5t-42 -142.5v-137h229v-186h-229v-838h-234v838h-172z" />
<glyph unicode="g" horiz-adv-x="1235" d="M82 477q0 131 32.5 237t93.5 180.5t148 114.5t195 40q107 0 177.5 -42t113.5 -110h4v127h231v-928q0 -126 -33 -232t-103.5 -182.5t-179.5 -119.5t-261 -43q-55 0 -106 6t-95.5 16t-79.5 21t-57 22v217q33 -18 69.5 -35.5t78 -31t88 -21.5t98.5 -8q95 0 161.5 27.5 t108.5 75.5t61 113.5t19 141.5v99h-4q-54 -88 -133.5 -137.5t-202.5 -49.5q-97 0 -175 36t-133.5 102t-85.5 158.5t-30 205.5zM322 487q0 -68 16.5 -127t49.5 -102.5t81 -68.5t111 -25q56 0 105 22t85 63t57 100t21 132v115q0 53 -18.5 101t-51.5 84t-79 57.5t-101 21.5 q-63 0 -114 -23t-87 -69t-55.5 -116t-19.5 -165z" />
<glyph unicode="h" horiz-adv-x="1196" d="M158 0v1516h231v-652h4q26 42 58.5 76t73 58t88.5 37.5t106 13.5q168 0 257 -107.5t89 -312.5v-629h-234v580q0 138 -46.5 209t-153.5 71q-58 0 -103 -23t-76 -61t-47 -87.5t-16 -102.5v-586h-231z" />
<glyph unicode="i" horiz-adv-x="545" d="M135 1386q0 29 11 54t30 43t44.5 28.5t55.5 10.5t56 -10.5t45 -29t30 -43t11 -53.5q0 -27 -10.5 -51.5t-29.5 -42.5t-45 -28.5t-57 -10.5q-30 0 -56 10.5t-45 28.5t-29.5 42.5t-10.5 51.5zM158 0v1024h231v-1024h-231z" />
<glyph unicode="j" horiz-adv-x="545" d="M-162 -252q26 -15 62 -28t67 -13q39 0 74 16.5t61 53t41 94t15 139.5v1014h231v-985q0 -116 -25.5 -211.5t-77 -164t-129 -106.5t-180.5 -38q-18 0 -37 2.5t-37.5 6.5t-35.5 9t-29 10v201zM135 1386q0 29 11 54t30 43t44.5 28.5t55.5 10.5t56 -10.5t45 -29t30 -43 t11 -53.5q0 -27 -10.5 -51.5t-29.5 -42.5t-45 -28.5t-57 -10.5q-30 0 -56 10.5t-45 28.5t-29.5 42.5t-10.5 51.5z" />
<glyph unicode="k" horiz-adv-x="1092" d="M158 0v1516h231v-959h4l381 467h293l-438 -489l471 -535h-305l-402 492h-4v-492h-231z" />
<glyph unicode="l" horiz-adv-x="545" d="M158 0v1516h231v-1516h-231z" />
<glyph unicode="m" horiz-adv-x="1821" d="M158 0v1024h231v-158h4q54 90 136.5 136.5t187.5 46.5q52 0 98 -14t83.5 -40t65.5 -63t44 -84q62 105 146.5 153t197.5 48q163 0 248.5 -99t85.5 -317v-633h-232v578q0 84 -14 139t-40 86.5t-63.5 44t-85.5 12.5q-47 0 -86.5 -23t-68 -62t-44.5 -90.5t-16 -109.5v-575 h-231v598q0 72 -14 122t-40.5 81t-63.5 45t-83 14t-85.5 -20t-68 -57t-45 -89.5t-16.5 -118.5v-575h-231z" />
<glyph unicode="n" horiz-adv-x="1198" d="M158 0v1024h231v-164h4q62 102 145.5 145.5t186.5 43.5q163 0 252.5 -104t89.5 -316v-629h-231v575q0 144 -48.5 214.5t-156.5 70.5q-51 0 -95.5 -20.5t-77 -57.5t-51 -88t-18.5 -112v-582h-231z" />
<glyph unicode="o" horiz-adv-x="1217" d="M82 500q0 135 40 237.5t111.5 172t171.5 104.5t220 35q124 0 219.5 -38t160 -107.5t97.5 -166.5t33 -215q0 -127 -38.5 -228.5t-108.5 -172.5t-168.5 -108.5t-219.5 -37.5q-120 0 -215.5 37t-163 105.5t-103.5 165.5t-36 217zM322 508q0 -87 21.5 -151.5t60.5 -107.5 t92.5 -64t117.5 -21q138 0 209.5 89.5t71.5 260.5q0 170 -75.5 258t-207.5 88q-62 0 -115 -21t-92 -64.5t-61 -110t-22 -156.5z" />
<glyph unicode="p" horiz-adv-x="1235" d="M158 -471v1495h231v-164h4q27 42 60 76.5t74.5 59.5t92.5 39t113 14q109 0 188.5 -41t131 -111t76 -162.5t24.5 -195.5q0 -121 -30.5 -224.5t-90.5 -179t-148 -118t-202 -42.5q-53 0 -96.5 11.5t-79 32.5t-63.5 49t-50 61h-4v-600h-231zM387 424q0 -55 18.5 -103 t51.5 -82.5t78.5 -54.5t99.5 -20q64 0 115.5 24t87.5 71t55.5 118.5t19.5 165.5q0 74 -17.5 133t-50.5 100t-80.5 62.5t-107.5 21.5t-109.5 -22t-85 -62t-55.5 -96.5t-20 -124.5v-131z" />
<glyph unicode="q" horiz-adv-x="1235" d="M82 485q0 130 33.5 234t95 177.5t148 113t192.5 39.5q108 0 177.5 -41.5t113.5 -110.5h4v127h231v-1495h-231v633h-4q-48 -85 -129 -136t-203 -51q-89 0 -167 31.5t-136 95t-91.5 159.5t-33.5 224zM322 489q0 -90 23 -152t59.5 -100.5t82.5 -55.5t91 -17q60 0 110 23.5 t85.5 65.5t55 99.5t19.5 124.5v119q0 54 -19 102t-52.5 84t-80 57t-100.5 21q-130 0 -202 -95.5t-72 -275.5z" />
<glyph unicode="r" horiz-adv-x="758" d="M158 0v1024h231v-199h4q19 57 47.5 98t63 67.5t73 39t78.5 12.5q26 0 50 -3t43 -11v-229q-10 7 -25.5 13t-33.5 11t-37.5 8t-37.5 3q-48 0 -89 -21t-71 -61t-47.5 -97.5t-17.5 -130.5v-524h-231z" />
<glyph unicode="s" horiz-adv-x="834" d="M92 31v221q32 -23 68 -41t73 -30t72 -18.5t64 -6.5q87 0 126.5 30t39.5 80q0 26 -7.5 45.5t-29 38t-60.5 38.5t-102 46q-56 24 -101.5 50.5t-77 61.5t-48.5 81t-17 110q0 66 27 123t78 99t123.5 66t162.5 24q32 0 64.5 -4t63 -10t57 -13.5t45.5 -15.5v-209 q-24 16 -52.5 29t-59.5 22.5t-63 14.5t-63 5q-69 0 -109 -31t-40 -79q0 -30 8.5 -51.5t29.5 -39t55.5 -34t86.5 -37.5q57 -23 105 -50t83 -62.5t54.5 -82t19.5 -108.5q0 -66 -26 -124t-77 -101t-127.5 -68t-177.5 -25q-28 0 -64 4.5t-73 12t-71.5 17.5t-59.5 22z" />
<glyph unicode="t" horiz-adv-x="754" d="M49 838v186h170v236l232 71v-307h247v-186h-247v-496q0 -97 35 -137.5t110 -40.5q20 0 50.5 8.5t51.5 22.5v-185q-12 -7 -32.5 -13t-44.5 -11t-50.5 -8t-50.5 -3q-154 0 -227.5 83.5t-73.5 240.5v539h-170z" />
<glyph unicode="u" horiz-adv-x="1198" d="M131 403v621h234v-592q0 -73 15.5 -124.5t44 -83t67.5 -46t86 -14.5q48 0 90.5 17.5t74 52t50 84.5t18.5 114v592h233v-1024h-233v154h-4q-21 -37 -51.5 -69.5t-69.5 -57t-86.5 -38.5t-101.5 -14q-178 0 -272.5 107.5t-94.5 320.5z" />
<glyph unicode="v" horiz-adv-x="1038" d="M8 1024h254l221 -686q7 -21 13 -44.5t10.5 -46t7.5 -42t4 -33.5h4q2 12 5.5 32t8.5 42.5t11 45.5t12 42l229 690h244l-397 -1024h-248z" />
<glyph unicode="w" horiz-adv-x="1556" d="M18 1024h240l182 -723q7 -23 10 -51t5 -49h6q2 21 7 51.5t11 52.5l211 719h221l193 -725q5 -23 8.5 -52.5t5.5 -49.5h6q1 10 2.5 23t4 27.5t5 28t5.5 23.5l174 725h223l-301 -1024h-246l-188 680q-3 12 -5.5 26.5l-5 29t-4 28l-2.5 22.5h-4q-3 -24 -8.5 -54t-11.5 -50 l-201 -682h-242z" />
<glyph unicode="x" horiz-adv-x="1024" d="M18 0l351 506l-330 518h270l174 -326q13 -24 23.5 -46.5t15.5 -35.5h4q5 14 17 37t26 47l183 324h254l-342 -510l340 -514l-269 -2l-178 311q-9 16 -22 40.5t-21 39.5h-4q-9 -22 -21.5 -43t-21.5 -37l-182 -309h-267z" />
<glyph unicode="y" horiz-adv-x="1047" d="M6 1024h260l240 -721q8 -25 13.5 -52.5t8.5 -45.5h4q5 15 10.5 42t14.5 56l248 721h235l-444 -1147q-70 -186 -170 -272t-231 -86q-34 0 -74 4t-68 12v197q22 -10 54.5 -17.5t58.5 -7.5q53 0 101 30t79 101l70 162z" />
<glyph unicode="z" horiz-adv-x="938" d="M23 0v82l557 756h-498v186h815v-88l-547 -750h549v-186h-876z" />
<glyph unicode="{" horiz-adv-x="676" d="M96 477v154q75 0 115.5 49t40.5 149v265q0 83 20 146.5t63 106.5t110 65t161 22v-158q-83 0 -121.5 -48.5t-38.5 -133.5v-267q0 -115 -40 -180t-109 -90v-4q71 -23 110 -85.5t39 -178.5v-266q0 -53 10 -89.5t29.5 -59t50 -32.5t70.5 -10v-158q-100 0 -167.5 22t-109 64 t-59.5 104t-18 142v283q0 94 -40 141t-116 47z" />
<glyph unicode="|" horiz-adv-x="557" d="M180 -481v2048h197v-2048h-197z" />
<glyph unicode="}" horiz-adv-x="676" d="M70 -168q42 0 72 10.5t49.5 33.5t28.5 59t9 88v268q0 116 41.5 177.5t110.5 84.5v4q-71 25 -111.5 91t-40.5 181v265q0 88 -38 135t-121 47v158q95 0 162 -22t110.5 -65t63.5 -106t20 -145v-267q0 -102 40.5 -150t113.5 -48v-154q-76 0 -115 -47.5t-39 -140.5v-281 q0 -81 -18 -143t-60 -104.5t-110 -64.5t-168 -22v158z" />
<glyph unicode="~" horiz-adv-x="1438" d="M195 416q3 76 23.5 139.5t58.5 109.5t93.5 71.5t129.5 25.5q40 0 73.5 -7t63.5 -19t57 -27.5t54 -32.5q35 -22 61 -38t48 -26.5t42 -15t43 -4.5q28 0 51.5 12.5t41 35.5t27 55.5t9.5 72.5h174q-3 -75 -23.5 -138t-58.5 -109.5t-93.5 -72.5t-129.5 -26q-42 0 -77.5 8.5 t-68.5 23.5t-66 34.5t-69 41.5q-16 11 -35 22t-38.5 20t-40 14.5t-39.5 5.5q-69 0 -102.5 -49t-36.5 -127h-172z" />
<glyph unicode="&#xa1;" horiz-adv-x="610" d="M162 911q0 29 11 54t30 43.5t45 29.5t57 11t57 -11t44.5 -29.5t29 -43.5t10.5 -54q0 -28 -11 -53t-29.5 -43.5t-44.5 -29.5t-56 -11t-56 11t-45.5 29.5t-30.5 43.5t-11 53zM186 -406l25 1018h190l27 -1018h-242z" />
<glyph unicode="&#xa2;" d="M186 649q0 118 33 213t92.5 165t140.5 114.5t177 60.5v217h147v-207q68 -3 122 -18.5t85 -32.5v-225q-45 32 -97.5 52.5t-109.5 25.5v-680q51 6 106.5 28t100.5 54v-207q-85 -52 -207 -66v-186h-147v186q-98 10 -179.5 51t-140 107t-91 154.5t-32.5 193.5zM416 670 q0 -133 58 -214.5t155 -109.5v655q-47 -14 -86 -42t-67.5 -69.5t-44 -96.5t-15.5 -123z" />
<glyph unicode="&#xa3;" d="M125 0v178q105 29 153 101t48 184v155h-181v183h181v221q0 95 30 174.5t84.5 138t132 91t172.5 32.5q65 0 121.5 -11.5t106.5 -33.5v-207q-50 31 -106 47.5t-111 16.5q-99 0 -152 -67.5t-53 -205.5v-196h287v-183h-287v-124q0 -50 -12 -96t-34.5 -85.5t-54 -71 t-69.5 -53.5h676v-188h-932z" />
<glyph unicode="&#xa4;" horiz-adv-x="1139" d="M86 356l141 136q-42 63 -58.5 121.5t-16.5 111.5q0 57 16.5 116.5t58.5 116.5l-141 136l107 108l139 -137q115 74 237 74q127 0 236 -74l141 137l107 -108l-142 -136q42 -57 59 -116.5t17 -116.5q0 -54 -17 -113.5t-59 -119.5l142 -136l-107 -106l-139 137 q-54 -38 -114.5 -57t-123.5 -19t-123 19t-114 57l-139 -137zM316 727q0 -51 20 -95.5t56 -81.5q74 -74 177 -74q104 0 178 74q74 72 74 177q0 53 -20 97.5t-56 79.5q-77 72 -176 72q-52 0 -98 -18.5t-81 -55.5q-36 -37 -55 -80.5t-19 -94.5z" />
<glyph unicode="&#xa5;" d="M57 1434h260l220 -488q18 -40 27.5 -62.5t17.5 -43.5h4q8 28 19.5 53t27.5 59l219 482h244l-348 -641h258v-172h-316v-177h316v-172h-316v-272h-229v272h-326v172h326v177h-326v172h264z" />
<glyph unicode="&#xa6;" horiz-adv-x="557" d="M180 385h197v-866h-197v866zM180 705v862h197v-862h-197z" />
<glyph unicode="&#xa7;" horiz-adv-x="942" d="M121 731q0 40 11.5 76t30 66t43.5 54t52 40q-40 35 -68 92t-28 131q0 62 24 116.5t69.5 95.5t112.5 65t154 24q25 0 55.5 -3t63 -9t64 -15.5t57.5 -21.5v-205q-60 40 -124 58t-120 18q-75 0 -108 -33.5t-33 -81.5q0 -33 16.5 -58.5t46.5 -47.5t72.5 -43.5t95.5 -47.5 q67 -32 112.5 -67t73.5 -72.5t40 -78t12 -85.5q0 -42 -11 -81.5t-30.5 -75t-47 -65t-59.5 -50.5q19 -15 34.5 -36.5t27 -45.5t18 -49t6.5 -49q0 -72 -28.5 -130t-79 -98.5t-119 -62t-149.5 -21.5q-30 0 -65.5 4.5t-70.5 12.5t-68 19.5t-59 25.5v205q70 -41 141.5 -64.5 t137.5 -23.5q42 0 70.5 10.5t45.5 27t24 36.5t7 38q0 22 -5.5 39t-17.5 31.5t-31.5 28t-47.5 28.5q-22 11 -46.5 24.5t-55.5 29.5q-56 28 -101.5 60.5t-77.5 71.5t-49.5 87t-17.5 106zM330 748q0 -30 13 -57t41 -52.5t73.5 -51.5t109.5 -55q31 23 49.5 53.5t18.5 84.5 q0 29 -9.5 55t-35 50.5t-70 50.5t-114.5 55q-38 -22 -57 -52t-19 -81z" />
<glyph unicode="&#xa8;" horiz-adv-x="889" d="M100 1335q0 26 9.5 47.5t26.5 37.5t39.5 25t49.5 9q26 0 48.5 -9t39 -25t26 -37.5t9.5 -47.5q0 -24 -9 -45.5t-25.5 -37t-39 -24.5t-49.5 -9t-49.5 9t-39.5 24.5t-26.5 37t-9.5 45.5zM524 1335q0 26 9.5 47.5t26 37.5t39 25t48.5 9q27 0 50 -9t39.5 -25t26 -37.5 t9.5 -47.5q0 -24 -9.5 -45.5t-26 -37t-39.5 -24.5t-50 -9t-49.5 9t-39 24.5t-25.5 37t-9 45.5z" />
<glyph unicode="&#xa9;" horiz-adv-x="1819" d="M154 713q0 104 26 200t73.5 178.5t116 150t153 116t183.5 74.5t209 26q156 0 293 -52.5t239 -149.5t161 -233.5t59 -303.5q0 -106 -26.5 -202.5t-75 -179t-117 -149.5t-153 -114.5t-182.5 -73t-206 -25.5q-164 0 -302.5 54.5t-238.5 152.5t-156 233.5t-56 297.5zM258 715 q0 -144 51.5 -264t140 -206.5t207.5 -134t254 -47.5q133 0 251.5 48.5t207 135.5t140 206.5t51.5 261.5t-51 261t-139 205.5t-206.5 134.5t-253.5 48q-145 0 -265 -50t-206.5 -138t-134 -206t-47.5 -255zM455 694q0 126 40 225t110.5 167.5t165.5 104.5t206 36q37 0 71.5 -5 t65.5 -12.5t57.5 -17t45.5 -18.5v-197q-45 35 -113.5 56.5t-140.5 21.5q-61 0 -118 -21t-101.5 -64t-71.5 -108t-27 -153q0 -80 25.5 -142.5t70 -106t104 -66.5t126.5 -23q30 0 64 6t67.5 16.5t64.5 25.5t54 34v-179q-44 -26 -115.5 -47.5t-161.5 -21.5q-104 0 -193.5 37 t-155 102.5t-103 155t-37.5 194.5z" />
<glyph unicode="&#xaa;" horiz-adv-x="834" d="M80 913q0 94 61 158.5t191 81.5l217 27q0 74 -40.5 107.5t-102.5 33.5q-25 0 -57 -5.5t-66 -16t-67.5 -26t-61.5 -34.5v154q17 9 47 20t67 20.5t78.5 16t81.5 6.5q139 0 214 -71.5t75 -210.5v-457h-168v84h-4q-40 -53 -96 -79t-125 -26q-55 0 -100 16t-77 44.5 t-49.5 68.5t-17.5 88zM248 926q0 -47 36.5 -74t92.5 -27q32 0 62.5 12t55 33t39.5 51t15 66v76l-160 -23q-78 -11 -109.5 -37t-31.5 -77z" />
<glyph unicode="&#xab;" horiz-adv-x="1112" d="M70 537l315 344h215l-319 -344l319 -336h-215zM510 537l315 344h217l-321 -344l321 -336h-217z" />
<glyph unicode="&#xac;" horiz-adv-x="1438" d="M240 713v170h960v-594h-168v424h-792z" />
<glyph unicode="&#xad;" horiz-adv-x="823" d="M141 469v170h547v-170h-547z" />
<glyph unicode="&#xae;" horiz-adv-x="1819" d="M154 713q0 104 26 200t73.5 178.5t116 150t153 116t183.5 74.5t209 26q156 0 293 -52.5t239 -149.5t161 -233.5t59 -303.5q0 -106 -26.5 -202.5t-75 -179t-117 -149.5t-153 -114.5t-182.5 -73t-206 -25.5q-164 0 -302.5 54.5t-238.5 152.5t-156 233.5t-56 297.5zM258 715 q0 -144 51.5 -264t140 -206.5t207.5 -134t254 -47.5q133 0 251.5 48.5t207 135.5t140 206.5t51.5 261.5t-51 261t-139 205.5t-206.5 134.5t-253.5 48q-145 0 -265 -50t-206.5 -138t-134 -206t-47.5 -255zM598 254v940h285q102 0 171 -22t111 -58.5t60 -83.5t18 -96 q0 -93 -60 -161t-169 -93v-4q20 -4 37.5 -13.5t35.5 -28t37 -48.5t41 -76l121 -256h-211l-92 225q-12 30 -27 58t-32.5 49t-37.5 34t-44 13h-74v-379h-170zM768 774h117q81 0 127.5 37t46.5 102q0 35 -8.5 60t-30.5 41.5t-60.5 24.5t-97.5 8h-94v-273z" />
<glyph unicode="&#xaf;" horiz-adv-x="653" d="M57 1219v135h535v-135h-535z" />
<glyph unicode="&#xb0;" horiz-adv-x="770" d="M100 1174q0 60 22 111.5t60.5 90t90.5 60.5t112 22t112.5 -22t92 -60.5t62 -90t22.5 -111.5t-22.5 -112.5t-62 -91t-92 -61t-112.5 -22.5t-112 22.5t-90.5 61t-60.5 91t-22 112.5zM242 1174q0 -30 11 -56.5t30.5 -46.5t45.5 -31.5t56 -11.5t56.5 11.5t47 31.5t32 46.5 t11.5 56.5t-11.5 56t-32 45.5t-47 30.5t-56.5 11t-56 -11t-45.5 -30.5t-30.5 -45.5t-11 -56z" />
<glyph unicode="&#xb1;" horiz-adv-x="1438" d="M240 0v170h958v-170h-958zM240 670v170h395v397h170v-397h395v-170h-395v-396h-170v396h-395z" />
<glyph unicode="&#xb2;" horiz-adv-x="711" d="M61 584v133l242 233q34 33 59.5 61t43 55t26 55.5t8.5 62.5q0 24 -9 44.5t-25 35.5t-37.5 23.5t-46.5 8.5t-53.5 -7t-56.5 -20.5t-54.5 -32t-48.5 -42.5v184q15 13 40 26.5t56.5 24.5t68 18t74.5 7q61 0 111 -17t86 -49.5t56 -79.5t20 -106q0 -51 -16.5 -96t-44.5 -86 t-65.5 -79t-78.5 -77l-135 -127v-4h360v-149h-580z" />
<glyph unicode="&#xb3;" horiz-adv-x="711" d="M70 618v168q42 -32 96.5 -54.5t128.5 -22.5t116 31.5t42 86.5q0 53 -47 86t-150 33h-100v144h96q49 0 82.5 9t53.5 24.5t29 36t9 42.5q0 20 -7 39t-22.5 33.5t-40.5 23.5t-61 9q-60 0 -107 -21t-88 -53v166q16 10 42 19.5t56.5 17.5t64.5 13t65 5q67 0 117.5 -18 t84.5 -48t51 -69.5t17 -83.5q0 -30 -7.5 -59.5t-24.5 -55.5t-44.5 -47.5t-68.5 -36.5v-4q88 -21 131 -75t43 -123q0 -61 -24 -111t-67.5 -85.5t-104.5 -55t-136 -19.5q-28 0 -60.5 4.5t-63.5 12t-57.5 17.5t-43.5 21z" />
<glyph unicode="&#xb4;" horiz-adv-x="612" d="M109 1219l231 325h223l-282 -325h-172z" />
<glyph unicode="&#xb5;" horiz-adv-x="1223" d="M156 -377v1401h233v-578q0 -77 15 -130.5t42.5 -86.5t65.5 -48t84 -15t89.5 16t77 49t53.5 82.5t20 116.5v594h231v-1024h-229v127h-4q-17 -36 -44.5 -64t-60.5 -47t-70 -29t-75 -10q-57 0 -107.5 20.5t-85.5 80.5h-4l2 -455h-233z" />
<glyph unicode="&#xb6;" horiz-adv-x="963" d="M78 1161q0 62 22 112.5t59 86t86 55t103 19.5h514v-127h-123v-1307h-135v1307h-133v-1307h-137v881q-53 2 -99.5 22.5t-81.5 57t-55 87.5t-20 113z" />
<glyph unicode="&#xb7;" horiz-adv-x="479" d="M94 608q0 29 11.5 54t31.5 43.5t46.5 29t56.5 10.5q31 0 57 -10.5t45 -29.5t30 -43.5t11 -53.5t-11 -54.5t-30 -44t-45.5 -29.5t-58.5 -11q-30 0 -56 11t-45.5 30t-31 44.5t-11.5 53.5z" />
<glyph unicode="&#xb8;" horiz-adv-x="430" d="M49 -328q19 -3 35.5 -3.5t30.5 -0.5q36 0 60.5 7.5t40 19.5t22 27t6.5 30q0 12 -6 24.5t-19.5 22.5t-36 16.5t-55.5 6.5h-17t-18 -2v180h141v-94q46 -1 80 -13t56 -33t32.5 -49t10.5 -61q0 -38 -16 -72.5t-51.5 -60t-91 -40.5t-134.5 -15h-34t-36 2v108z" />
<glyph unicode="&#xb9;" horiz-adv-x="711" d="M100 1208v154l361 92v-731h182v-139h-532v139h178v532z" />
<glyph unicode="&#xba;" horiz-adv-x="922" d="M78 1069q0 95 29.5 167t81.5 120.5t123 73t155 24.5q87 0 155 -26.5t114.5 -75t70.5 -116t24 -149.5q0 -93 -27.5 -166t-77.5 -123t-120.5 -76t-156.5 -26q-91 0 -160 26.5t-116 75t-71 117.5t-24 154zM256 1075q0 -117 52 -177t149 -60q45 0 81.5 16.5t62 47.5t39 75.5 t13.5 99.5q0 113 -50.5 174.5t-143.5 61.5q-45 0 -82 -15t-64 -45t-42 -74.5t-15 -103.5z" />
<glyph unicode="&#xbb;" horiz-adv-x="1112" d="M70 201l321 336l-321 344h217l315 -344l-315 -336h-217zM512 201l319 336l-319 344h215l315 -344l-315 -336h-215z" />
<glyph unicode="&#xbc;" horiz-adv-x="1792" d="M100 1208v154l361 92v-731h182v-139h-532v139h178v532zM352 0l889 1434h191l-887 -1434h-193zM979 203v114l360 543h205v-524h113v-133h-113v-203h-170v203h-395zM1143 336h231v293q0 20 1 44t3 44h-4q-6 -16 -16 -34.5t-21 -37.5z" />
<glyph unicode="&#xbd;" horiz-adv-x="1792" d="M100 1208v154l361 92v-731h182v-139h-532v139h178v532zM352 0l889 1434h191l-887 -1434h-193zM1139 0v133l241 234q34 33 59.5 60.5t43 54.5t26.5 55.5t9 62.5q0 25 -9 45.5t-25 35.5t-38 23.5t-47 8.5t-53.5 -7t-56.5 -20.5t-54.5 -32.5t-48.5 -43v185q15 13 40 26 t56.5 24t68 18t74.5 7q61 0 111 -17t86 -49.5t56 -79.5t20 -106q0 -51 -16.5 -96t-44.5 -85.5t-65 -79t-79 -76.5l-135 -127v-4h360v-150h-579z" />
<glyph unicode="&#xbe;" horiz-adv-x="1792" d="M70 618v168q42 -32 96.5 -54.5t128.5 -22.5t116 31.5t42 86.5q0 53 -47 86t-150 33h-100v144h96q49 0 82.5 9t53.5 24.5t29 36t9 42.5q0 20 -7 39t-22.5 33.5t-40.5 23.5t-61 9q-60 0 -107 -21t-88 -53v166q16 10 42 19.5t56.5 17.5t64.5 13t65 5q67 0 117.5 -18 t84.5 -48t51 -69.5t17 -83.5q0 -30 -7.5 -59.5t-24.5 -55.5t-44.5 -47.5t-68.5 -36.5v-4q88 -21 131 -75t43 -123q0 -61 -24 -111t-67.5 -85.5t-104.5 -55t-136 -19.5q-28 0 -60.5 4.5t-63.5 12t-57.5 17.5t-43.5 21zM352 0l889 1434h191l-887 -1434h-193zM979 203v114 l360 543h205v-524h113v-133h-113v-203h-170v203h-395zM1143 336h231v293q0 20 1 44t3 44h-4q-6 -16 -16 -34.5t-21 -37.5z" />
<glyph unicode="&#xbf;" horiz-adv-x="924" d="M80 -78q0 58 12 109t36 96.5t60 87t84 82.5q50 42 81 73.5t47.5 59t22 55t5.5 62.5v69h203v-81q0 -51 -9.5 -93.5t-30 -80t-51.5 -71.5t-73 -69q-42 -36 -73 -68t-51.5 -64t-30 -66t-9.5 -74q0 -39 14.5 -74.5t41.5 -61.5t64.5 -41.5t82.5 -15.5q85 0 160 37.5t135 100.5 v-238q-76 -47 -153.5 -70.5t-172.5 -23.5q-97 0 -171 28.5t-124 77.5t-75 114.5t-25 139.5zM389 911q0 29 10.5 54t29.5 43.5t45 29.5t56 11q31 0 57.5 -11t46 -29.5t31 -43.5t11.5 -54q0 -28 -11.5 -53t-31.5 -43.5t-46.5 -29.5t-56.5 -11t-55.5 11t-44.5 29.5t-30 43.5 t-11 53z" />
<glyph unicode="&#xc0;" horiz-adv-x="1368" d="M8 0l543 1434h264l545 -1434h-262l-131 362h-574l-125 -362h-260zM369 1892h223l231 -325h-170zM459 563h440l-197 553q-4 10 -7 24.5t-6 29.5t-4.5 28t-2.5 21h-6q-1 -9 -2.5 -21.5t-4.5 -27t-6.5 -28.5t-7.5 -26z" />
<glyph unicode="&#xc1;" horiz-adv-x="1368" d="M8 0l543 1434h264l545 -1434h-262l-131 362h-574l-125 -362h-260zM459 563h440l-197 553q-4 10 -7 24.5t-6 29.5t-4.5 28t-2.5 21h-6q-1 -9 -2.5 -21.5t-4.5 -27t-6.5 -28.5t-7.5 -26zM494 1567l231 325h223l-282 -325h-172z" />
<glyph unicode="&#xc2;" horiz-adv-x="1368" d="M8 0l543 1434h264l545 -1434h-262l-131 362h-574l-125 -362h-260zM362 1567l220 325h196l219 -325h-157l-164 213l-164 -213h-150zM459 563h440l-197 553q-4 10 -7 24.5t-6 29.5t-4.5 28t-2.5 21h-6q-1 -9 -2.5 -21.5t-4.5 -27t-6.5 -28.5t-7.5 -26z" />
<glyph unicode="&#xc3;" horiz-adv-x="1368" d="M8 0l543 1434h264l545 -1434h-262l-131 362h-574l-125 -362h-260zM350 1567q0 54 11.5 101.5t35.5 82t60.5 54.5t85.5 20t85 -14t68 -31q28 -14 58.5 -26.5t68.5 -12.5q23 0 38 9t24.5 23.5t13.5 33t4 38.5h119q0 -58 -12 -105.5t-36 -81.5t-59 -52.5t-81 -18.5 q-51 0 -91 12t-75 29q-32 16 -60.5 27.5t-60.5 11.5q-25 0 -40.5 -9.5t-24.5 -24.5t-12 -32.5t-3 -33.5h-117zM459 563h440l-197 553q-4 10 -7 24.5t-6 29.5t-4.5 28t-2.5 21h-6q-1 -9 -2.5 -21.5t-4.5 -27t-6.5 -28.5t-7.5 -26z" />
<glyph unicode="&#xc4;" horiz-adv-x="1368" d="M8 0l543 1434h264l545 -1434h-262l-131 362h-574l-125 -362h-260zM346 1683q0 26 9.5 47.5t26 37.5t39.5 25t50 9q26 0 48.5 -9t39 -25t26 -37.5t9.5 -47.5q0 -24 -9 -45.5t-25.5 -37t-39 -24.5t-49.5 -9t-50 9t-39.5 24.5t-26 37t-9.5 45.5zM459 563h440l-197 553 q-4 10 -7 24.5t-6 29.5t-4.5 28t-2.5 21h-6q-1 -9 -2.5 -21.5t-4.5 -27t-6.5 -28.5t-7.5 -26zM770 1683q0 26 9.5 47.5t26 37.5t39 25t48.5 9q27 0 50 -9t39.5 -25t26 -37.5t9.5 -47.5q0 -24 -9.5 -45.5t-26 -37t-39.5 -24.5t-50 -9t-49.5 9t-39 24.5t-25.5 37t-9 45.5z" />
<glyph unicode="&#xc5;" horiz-adv-x="1368" d="M8 0l524 1389q-34 24 -53.5 63t-19.5 88q0 51 18.5 91t49.5 67t72.5 41t86.5 14q49 0 89 -15.5t68.5 -42.5t44 -64.5t15.5 -82.5q0 -48 -20 -87.5t-54 -65.5l531 -1395h-262l-131 362h-574l-125 -362h-260zM461 567h436l-197 549q-3 10 -6 24t-5.5 28.5t-4 27.5t-2.5 21 h-6q-1 -9 -2.5 -21.5t-4.5 -26t-6.5 -27.5t-7.5 -26zM573 1546q0 -49 29 -78.5t76 -29.5q24 0 43.5 9t34 24t22.5 34.5t8 40.5q0 45 -30 75t-78 30q-47 0 -76 -30t-29 -75z" />
<glyph unicode="&#xc6;" horiz-adv-x="1829" d="M4 0l711 1434h1014v-205h-539v-404h500v-204h-500v-416h571v-205h-809v362h-499l-170 -362h-279zM543 563h409v666h-92z" />
<glyph unicode="&#xc7;" horiz-adv-x="1272" d="M84 688q0 177 58 319.5t158.5 242.5t237 154t293.5 54q50 0 100 -4.5t95.5 -12t85.5 -18.5t68 -24v-242q-73 43 -161 66.5t-181 23.5q-106 0 -198 -36t-160 -105t-107 -170.5t-39 -233.5q0 -120 34 -215.5t96.5 -162t150.5 -102.5t196 -36q105 0 197.5 25.5t171.5 75.5 v-226q-35 -18 -78.5 -33t-91.5 -26t-100 -17.5t-103 -9.5v-69q45 -1 78.5 -13t55 -33t32 -49t10.5 -61q0 -38 -16 -72.5t-51.5 -60t-91 -40.5t-134.5 -15h-34t-35 2v108q18 -3 34.5 -3.5t30.5 -0.5q36 0 60.5 7.5t40 19.5t22 27t6.5 30q0 12 -6 24.5t-19.5 22.5t-36 16.5 t-55.5 6.5h-16.5t-17.5 -2v162q-139 17 -247 76t-182 151.5t-112.5 214.5t-38.5 264z" />
<glyph unicode="&#xc8;" horiz-adv-x="1059" d="M182 0v1434h776v-205h-538v-404h500v-204h-500v-416h571v-205h-809zM281 1892h223l231 -325h-170z" />
<glyph unicode="&#xc9;" horiz-adv-x="1059" d="M182 0v1434h776v-205h-538v-404h500v-204h-500v-416h571v-205h-809zM410 1567l231 325h223l-282 -325h-172z" />
<glyph unicode="&#xca;" horiz-adv-x="1059" d="M182 0v1434h776v-205h-538v-404h500v-204h-500v-416h571v-205h-809zM242 1567l219 325h196l220 -325h-158l-164 213l-164 -213h-149z" />
<glyph unicode="&#xcb;" horiz-adv-x="1059" d="M182 0v1434h776v-205h-538v-404h500v-204h-500v-416h571v-205h-809zM236 1683q0 26 9.5 47.5t26 37.5t39 25t49.5 9q26 0 48.5 -9t39 -25t26 -37.5t9.5 -47.5q0 -24 -9 -45.5t-25.5 -37t-39 -24.5t-49.5 -9t-49.5 9t-39 24.5t-26 37t-9.5 45.5zM659 1683q0 26 9.5 47.5 t26 37.5t39 25t48.5 9q27 0 50 -9t39.5 -25t26 -37.5t9.5 -47.5q0 -24 -9.5 -45.5t-26 -37t-39.5 -24.5t-50 -9t-49.5 9t-39 24.5t-25.5 37t-9 45.5z" />
<glyph unicode="&#xcc;" horiz-adv-x="602" d="M16 1892h224l231 -325h-170zM182 0v1434h238v-1434h-238z" />
<glyph unicode="&#xcd;" horiz-adv-x="602" d="M121 1567l231 325h223l-282 -325h-172zM182 0v1434h238v-1434h-238z" />
<glyph unicode="&#xce;" horiz-adv-x="602" d="M-10 1567l219 325h197l219 -325h-158l-164 213l-164 -213h-149zM182 0v1434h238v-1434h-238z" />
<glyph unicode="&#xcf;" horiz-adv-x="602" d="M-29 1683q0 26 9.5 47.5t26.5 37.5t39.5 25t49.5 9q26 0 48.5 -9t39 -25t26 -37.5t9.5 -47.5q0 -24 -9 -45.5t-25.5 -37t-39 -24.5t-49.5 -9t-49.5 9t-39.5 24.5t-26.5 37t-9.5 45.5zM182 0v1434h238v-1434h-238zM395 1683q0 26 9.5 47.5t26 37.5t39 25t48.5 9 q27 0 50 -9t39.5 -25t26 -37.5t9.5 -47.5q0 -24 -9.5 -45.5t-26 -37t-39.5 -24.5t-50 -9t-49.5 9t-39 24.5t-25.5 37t-9 45.5z" />
<glyph unicode="&#xd0;" horiz-adv-x="1477" d="M18 614v211h164v609h443q384 0 576 -178t192 -521q0 -166 -55 -302t-157 -232t-246 -148.5t-321 -52.5h-432v614h-164zM420 205h192q129 0 228 37.5t165.5 106t101 165.5t34.5 217q0 119 -34 211.5t-100.5 156t-164.5 97t-226 33.5h-196v-404h295v-211h-295v-409z" />
<glyph unicode="&#xd1;" horiz-adv-x="1585" d="M182 0v1434h301l633 -1037q6 -10 14.5 -23.5t17 -28t16 -28l12.5 -22.5h4q-2 11 -4 43.5t-3.5 70t-2.5 71t-1 46.5v908h234v-1434h-285l-657 1061q-7 10 -15 23t-15 26.5t-12.5 26.5t-8.5 22h-7q3 -12 5 -44t4 -68t3 -68.5t1 -46.5v-932h-234zM489 1567q0 54 11.5 101.5 t35.5 82t60.5 54.5t85.5 20q50 0 86 -14t68 -31q27 -14 57.5 -26.5t69.5 -12.5q22 0 37 9t24.5 23.5t13.5 33t4 38.5h119q0 -58 -12 -105.5t-36 -81.5t-59 -52.5t-81 -18.5q-51 0 -91 12t-75 29q-32 16 -60.5 27.5t-60.5 11.5q-24 0 -39.5 -9.5t-24.5 -24.5t-12.5 -32.5 t-3.5 -33.5h-117z" />
<glyph unicode="&#xd2;" horiz-adv-x="1542" d="M84 698q0 165 46.5 304t136.5 240.5t221 158.5t300 57q149 0 273 -52t212.5 -147t137.5 -229.5t49 -298.5q0 -173 -49.5 -312.5t-141 -238t-219.5 -152t-286 -53.5q-153 0 -278.5 53t-214.5 148t-138 228.5t-49 293.5zM336 717q0 -125 33 -223.5t91 -167t137 -104.5 t171 -36q98 0 178.5 33.5t139 99t90.5 163.5t32 227q0 133 -30.5 233.5t-87 168t-135.5 102t-177 34.5q-102 0 -184 -39t-139 -109.5t-88 -167.5t-31 -214zM451 1892h223l231 -325h-170z" />
<glyph unicode="&#xd3;" horiz-adv-x="1542" d="M84 698q0 165 46.5 304t136.5 240.5t221 158.5t300 57q149 0 273 -52t212.5 -147t137.5 -229.5t49 -298.5q0 -173 -49.5 -312.5t-141 -238t-219.5 -152t-286 -53.5q-153 0 -278.5 53t-214.5 148t-138 228.5t-49 293.5zM336 717q0 -125 33 -223.5t91 -167t137 -104.5 t171 -36q98 0 178.5 33.5t139 99t90.5 163.5t32 227q0 133 -30.5 233.5t-87 168t-135.5 102t-177 34.5q-102 0 -184 -39t-139 -109.5t-88 -167.5t-31 -214zM608 1567l232 325h223l-283 -325h-172z" />
<glyph unicode="&#xd4;" horiz-adv-x="1542" d="M84 698q0 165 46.5 304t136.5 240.5t221 158.5t300 57q149 0 273 -52t212.5 -147t137.5 -229.5t49 -298.5q0 -173 -49.5 -312.5t-141 -238t-219.5 -152t-286 -53.5q-153 0 -278.5 53t-214.5 148t-138 228.5t-49 293.5zM336 717q0 -125 33 -223.5t91 -167t137 -104.5 t171 -36q98 0 178.5 33.5t139 99t90.5 163.5t32 227q0 133 -30.5 233.5t-87 168t-135.5 102t-177 34.5q-102 0 -184 -39t-139 -109.5t-88 -167.5t-31 -214zM461 1567l219 325h197l219 -325h-158l-164 213l-164 -213h-149z" />
<glyph unicode="&#xd5;" horiz-adv-x="1542" d="M84 698q0 165 46.5 304t136.5 240.5t221 158.5t300 57q149 0 273 -52t212.5 -147t137.5 -229.5t49 -298.5q0 -173 -49.5 -312.5t-141 -238t-219.5 -152t-286 -53.5q-153 0 -278.5 53t-214.5 148t-138 228.5t-49 293.5zM336 717q0 -125 33 -223.5t91 -167t137 -104.5 t171 -36q98 0 178.5 33.5t139 99t90.5 163.5t32 227q0 133 -30.5 233.5t-87 168t-135.5 102t-177 34.5q-102 0 -184 -39t-139 -109.5t-88 -167.5t-31 -214zM444 1567q0 54 11.5 101.5t35.5 82t60.5 54.5t85.5 20t85.5 -14t68.5 -31q27 -14 57.5 -26.5t69.5 -12.5q22 0 37 9 t24.5 23.5t13.5 33t4 38.5h119q0 -58 -12 -105.5t-36 -81.5t-59 -52.5t-81 -18.5q-51 0 -91 12t-75 29q-32 16 -60.5 27.5t-60.5 11.5q-25 0 -40.5 -9.5t-24.5 -24.5t-12 -32.5t-3 -33.5h-117z" />
<glyph unicode="&#xd6;" horiz-adv-x="1542" d="M84 698q0 165 46.5 304t136.5 240.5t221 158.5t300 57q149 0 273 -52t212.5 -147t137.5 -229.5t49 -298.5q0 -173 -49.5 -312.5t-141 -238t-219.5 -152t-286 -53.5q-153 0 -278.5 53t-214.5 148t-138 228.5t-49 293.5zM336 717q0 -125 33 -223.5t91 -167t137 -104.5 t171 -36q98 0 178.5 33.5t139 99t90.5 163.5t32 227q0 133 -30.5 233.5t-87 168t-135.5 102t-177 34.5q-102 0 -184 -39t-139 -109.5t-88 -167.5t-31 -214zM438 1683q0 26 9.5 47.5t26.5 37.5t39.5 25t49.5 9q26 0 48.5 -9t39 -25t26 -37.5t9.5 -47.5q0 -24 -9 -45.5 t-25.5 -37t-39 -24.5t-49.5 -9t-49.5 9t-39.5 24.5t-26.5 37t-9.5 45.5zM862 1683q0 26 9.5 47.5t26 37.5t39 25t48.5 9q27 0 50 -9t39.5 -25t26 -37.5t9.5 -47.5q0 -24 -9.5 -45.5t-26 -37t-39.5 -24.5t-50 -9t-49.5 9t-39 24.5t-25.5 37t-9 45.5z" />
<glyph unicode="&#xd7;" horiz-adv-x="1438" d="M258 254l342 338l-342 342l119 121l344 -340l342 340l117 -123l-340 -340l342 -338l-121 -121l-340 340l-342 -340z" />
<glyph unicode="&#xd8;" horiz-adv-x="1542" d="M84 698q0 162 46 301t135 241t220.5 160t302.5 58q118 0 219 -31.5t183 -93.5l131 158l98 -80l-137 -162q85 -96 131.5 -226.5t46.5 -291.5q0 -173 -49.5 -312.5t-141 -238t-219.5 -152t-286 -53.5q-128 0 -236.5 38t-193.5 106l-146 -172l-96 82l150 180 q-78 93 -118 217t-40 272zM328 715q0 -93 17.5 -172.5t57.5 -147.5l648 772q-56 45 -125 66.5t-148 21.5q-105 0 -188.5 -40.5t-141.5 -112.5t-89 -171t-31 -216zM479 293q57 -57 131 -86t158 -29q101 0 183.5 34.5t141.5 102t91.5 166.5t32.5 228q0 217 -87 358z" />
<glyph unicode="&#xd9;" horiz-adv-x="1454" d="M164 575v859h239v-854q0 -104 22.5 -178.5t65.5 -122.5t104 -70.5t138 -22.5q70 0 128.5 19t100.5 63.5t65.5 117t23.5 179.5v869h239v-840q0 -318 -146.5 -468.5t-426.5 -150.5q-130 0 -232.5 35.5t-173.5 109t-109 186.5t-38 269zM414 1892h223l231 -325h-170z" />
<glyph unicode="&#xda;" horiz-adv-x="1454" d="M164 575v859h239v-854q0 -104 22.5 -178.5t65.5 -122.5t104 -70.5t138 -22.5q70 0 128.5 19t100.5 63.5t65.5 117t23.5 179.5v869h239v-840q0 -318 -146.5 -468.5t-426.5 -150.5q-130 0 -232.5 35.5t-173.5 109t-109 186.5t-38 269zM567 1567l232 325h223l-283 -325h-172 z" />
<glyph unicode="&#xdb;" horiz-adv-x="1454" d="M164 575v859h239v-854q0 -104 22.5 -178.5t65.5 -122.5t104 -70.5t138 -22.5q70 0 128.5 19t100.5 63.5t65.5 117t23.5 179.5v869h239v-840q0 -318 -146.5 -468.5t-426.5 -150.5q-130 0 -232.5 35.5t-173.5 109t-109 186.5t-38 269zM408 1567l219 325h196l219 -325h-157 l-164 213l-164 -213h-149z" />
<glyph unicode="&#xdc;" horiz-adv-x="1454" d="M164 575v859h239v-854q0 -104 22.5 -178.5t65.5 -122.5t104 -70.5t138 -22.5q70 0 128.5 19t100.5 63.5t65.5 117t23.5 179.5v869h239v-840q0 -318 -146.5 -468.5t-426.5 -150.5q-130 0 -232.5 35.5t-173.5 109t-109 186.5t-38 269zM389 1683q0 26 9.5 47.5t26 37.5 t39.5 25t50 9q26 0 48.5 -9t39 -25t26 -37.5t9.5 -47.5q0 -24 -9 -45.5t-25.5 -37t-39 -24.5t-49.5 -9t-50 9t-39.5 24.5t-26 37t-9.5 45.5zM813 1683q0 26 9.5 47.5t26 37.5t39 25t48.5 9q27 0 50 -9t39.5 -25t26 -37.5t9.5 -47.5q0 -24 -9.5 -45.5t-26 -37t-39.5 -24.5 t-50 -9t-49.5 9t-39 24.5t-25.5 37t-9 45.5z" />
<glyph unicode="&#xdd;" horiz-adv-x="1178" d="M0 1434h270l289 -598q14 -29 20.5 -53t12.5 -40h2q5 22 12.5 43.5t20.5 47.5l299 600h252l-476 -914v-520h-237v514zM444 1567l232 325h223l-283 -325h-172z" />
<glyph unicode="&#xde;" horiz-adv-x="1194" d="M182 0v1434h238v-217h205q129 0 225 -31.5t160 -89.5t95.5 -140.5t31.5 -183.5q0 -97 -36 -183.5t-106 -150.5t-172 -101.5t-233 -37.5h-170v-299h-238zM420 500h153q148 0 231 66t83 196q0 57 -18.5 104t-56.5 80.5t-94.5 51.5t-133.5 18h-164v-516z" />
<glyph unicode="&#xdf;" horiz-adv-x="1186" d="M158 0v1094q0 93 28.5 174t84.5 141.5t140.5 95.5t196.5 35q97 0 172.5 -27.5t128 -76t80 -115t27.5 -145.5q0 -66 -21.5 -124.5t-58.5 -105t-86 -79.5t-105 -48v-4q190 -34 284.5 -139.5t94.5 -276.5q0 -73 -25 -148t-77.5 -136.5t-134 -100.5t-193.5 -39 q-51 0 -102.5 8.5t-93.5 22.5v213q35 -26 82.5 -40.5t95.5 -14.5q45 0 83 15.5t66 45t44 72.5t16 98q0 72 -26 128.5t-73 96t-112.5 62t-145.5 27.5v176q54 6 100 29.5t79 59t52 81t19 96.5q0 94 -49.5 147.5t-134.5 53.5q-100 0 -152.5 -73t-52.5 -206v-1073h-231z" />
<glyph unicode="&#xe0;" horiz-adv-x="1034" d="M68 279q0 66 19 123t59.5 101.5t104 74t152.5 40.5l299 41q0 110 -50.5 159.5t-143.5 49.5t-182 -31t-158 -83v204q22 14 62 30t90 29.5t105 22.5t107 9q102 0 176.5 -27t123 -78.5t72.5 -125.5t24 -169v-649h-228v141h-4q-52 -81 -127.5 -123.5t-175.5 -42.5 q-78 0 -139 22.5t-102 62.5t-62.5 96t-21.5 123zM244 1544h223l231 -325h-170zM295 303q0 -31 12 -58t34 -46t53.5 -30t70.5 -11q54 0 97.5 19.5t74.5 53t48 78.5t17 97v92l-221 -29q-57 -7 -93 -21t-56.5 -35t-28.5 -48t-8 -62z" />
<glyph unicode="&#xe1;" horiz-adv-x="1034" d="M68 279q0 66 19 123t59.5 101.5t104 74t152.5 40.5l299 41q0 110 -50.5 159.5t-143.5 49.5t-182 -31t-158 -83v204q22 14 62 30t90 29.5t105 22.5t107 9q102 0 176.5 -27t123 -78.5t72.5 -125.5t24 -169v-649h-228v141h-4q-52 -81 -127.5 -123.5t-175.5 -42.5 q-78 0 -139 22.5t-102 62.5t-62.5 96t-21.5 123zM295 303q0 -31 12 -58t34 -46t53.5 -30t70.5 -11q54 0 97.5 19.5t74.5 53t48 78.5t17 97v92l-221 -29q-57 -7 -93 -21t-56.5 -35t-28.5 -48t-8 -62zM348 1219l232 325h223l-283 -325h-172z" />
<glyph unicode="&#xe2;" horiz-adv-x="1034" d="M68 279q0 66 19 123t59.5 101.5t104 74t152.5 40.5l299 41q0 110 -50.5 159.5t-143.5 49.5t-182 -31t-158 -83v204q22 14 62 30t90 29.5t105 22.5t107 9q102 0 176.5 -27t123 -78.5t72.5 -125.5t24 -169v-649h-228v141h-4q-52 -81 -127.5 -123.5t-175.5 -42.5 q-78 0 -139 22.5t-102 62.5t-62.5 96t-21.5 123zM207 1219l219 325h197l219 -325h-158l-164 213l-164 -213h-149zM295 303q0 -31 12 -58t34 -46t53.5 -30t70.5 -11q54 0 97.5 19.5t74.5 53t48 78.5t17 97v92l-221 -29q-57 -7 -93 -21t-56.5 -35t-28.5 -48t-8 -62z" />
<glyph unicode="&#xe3;" horiz-adv-x="1034" d="M68 279q0 66 19 123t59.5 101.5t104 74t152.5 40.5l299 41q0 110 -50.5 159.5t-143.5 49.5t-182 -31t-158 -83v204q22 14 62 30t90 29.5t105 22.5t107 9q102 0 176.5 -27t123 -78.5t72.5 -125.5t24 -169v-649h-228v141h-4q-52 -81 -127.5 -123.5t-175.5 -42.5 q-78 0 -139 22.5t-102 62.5t-62.5 96t-21.5 123zM184 1219q0 54 11.5 101.5t35.5 82t60.5 54.5t85.5 20t85 -14t68 -31q28 -14 58.5 -26.5t68.5 -12.5q23 0 38 9t24.5 23.5t13.5 33t4 38.5h119q0 -58 -12 -106t-36 -81.5t-59 -52t-81 -18.5q-51 0 -91 12t-75 29 q-32 15 -60.5 27t-60.5 12q-25 0 -40.5 -9.5t-24.5 -24.5t-12 -32.5t-3 -33.5h-117zM295 303q0 -31 12 -58t34 -46t53.5 -30t70.5 -11q54 0 97.5 19.5t74.5 53t48 78.5t17 97v92l-221 -29q-57 -7 -93 -21t-56.5 -35t-28.5 -48t-8 -62z" />
<glyph unicode="&#xe4;" horiz-adv-x="1034" d="M68 279q0 66 19 123t59.5 101.5t104 74t152.5 40.5l299 41q0 110 -50.5 159.5t-143.5 49.5t-182 -31t-158 -83v204q22 14 62 30t90 29.5t105 22.5t107 9q102 0 176.5 -27t123 -78.5t72.5 -125.5t24 -169v-649h-228v141h-4q-52 -81 -127.5 -123.5t-175.5 -42.5 q-78 0 -139 22.5t-102 62.5t-62.5 96t-21.5 123zM186 1335q0 26 9.5 47.5t26.5 37.5t39.5 25t49.5 9q26 0 48.5 -9t39 -25t26 -37.5t9.5 -47.5q0 -24 -9 -45.5t-25.5 -37t-39 -24.5t-49.5 -9t-49.5 9t-39.5 24.5t-26.5 37t-9.5 45.5zM295 303q0 -31 12 -58t34 -46t53.5 -30 t70.5 -11q54 0 97.5 19.5t74.5 53t48 78.5t17 97v92l-221 -29q-57 -7 -93 -21t-56.5 -35t-28.5 -48t-8 -62zM610 1335q0 26 9.5 47.5t26 37.5t39 25t48.5 9q27 0 50 -9t39.5 -25t26 -37.5t9.5 -47.5q0 -24 -9.5 -45.5t-26 -37t-39.5 -24.5t-50 -9t-49.5 9t-39 24.5t-25.5 37 t-9 45.5z" />
<glyph unicode="&#xe5;" horiz-adv-x="1034" d="M68 279q0 66 19 123t59.5 101.5t104 74t152.5 40.5l299 41q0 110 -50.5 159.5t-143.5 49.5t-182 -31t-158 -83v204q22 14 62 30t90 29.5t105 22.5t107 9q102 0 176.5 -27t123 -78.5t72.5 -125.5t24 -169v-649h-228v141h-4q-52 -81 -127.5 -123.5t-175.5 -42.5 q-78 0 -139 22.5t-102 62.5t-62.5 96t-21.5 123zM295 303q0 -31 12 -58t34 -46t53.5 -30t70.5 -11q54 0 97.5 19.5t74.5 53t48 78.5t17 97v92l-221 -29q-57 -7 -93 -21t-56.5 -35t-28.5 -48t-8 -62zM311 1366q0 51 18 90t49 66t71 41t83 14q49 0 88.5 -15t68 -41.5t44 -63.5 t15.5 -81q0 -47 -18 -85.5t-49 -66t-71 -42.5t-84 -15q-45 0 -84 14.5t-68.5 40.5t-46 62.5t-16.5 81.5zM424 1374q0 -49 28 -78.5t74 -29.5q24 0 43.5 9t34 24t22 34.5t7.5 40.5q0 44 -30 73.5t-77 29.5q-46 0 -74 -29.5t-28 -73.5z" />
<glyph unicode="&#xe6;" horiz-adv-x="1681" d="M68 281q0 81 27.5 140t77.5 99t119.5 62t153.5 28l254 19q0 123 -53.5 181t-144.5 58q-33 0 -72.5 -5.5t-82.5 -18.5t-88.5 -34.5t-90.5 -53.5v205q30 16 71 32t88 28.5t97.5 20t99.5 7.5q233 0 307 -164h5q32 43 70.5 74t82.5 51t91.5 29.5t95.5 9.5q105 0 187 -34 t139 -97.5t86.5 -155t29.5 -205.5v-113h-694q3 -73 26.5 -126.5t63 -89t94.5 -53t121 -17.5q83 0 163.5 26.5t145.5 71.5v-193q-26 -17 -65 -33t-87 -28t-102.5 -19.5t-112.5 -7.5q-133 0 -229 50.5t-156 146.5h-4q-42 -58 -90.5 -96.5t-98.5 -60.5t-99 -31t-91 -9 q-80 0 -142.5 22t-105 62t-65 96.5t-22.5 125.5zM293 291q0 -59 46 -96t122 -37q48 0 91.5 17t76.5 49t52 78.5t19 105.5v49l-172 -13q-69 -4 -114.5 -16.5t-72 -31.5t-37.5 -45.5t-11 -59.5zM924 618h465q0 56 -13 102t-40 79t-67.5 51t-94.5 18q-44 0 -85.5 -17 t-75.5 -49.5t-57.5 -78.5t-31.5 -105z" />
<glyph unicode="&#xe7;" horiz-adv-x="963" d="M82 485q0 128 38.5 232t110.5 177.5t174.5 114t229.5 40.5q41 0 78 -5t69 -12.5t57.5 -16.5t41.5 -18v-219q-50 37 -108.5 59.5t-127.5 22.5q-68 0 -127 -23.5t-102.5 -68.5t-68.5 -111t-25 -151q0 -79 22 -142.5t63 -107.5t100 -68t134 -24q30 0 62 7t63.5 18.5t60.5 27 t54 33.5v-207q-48 -28 -111.5 -46t-146.5 -22v-69q45 -1 78 -13t55 -33t32.5 -49t10.5 -61q0 -38 -16 -72.5t-51.5 -60t-91 -40.5t-134.5 -15h-34t-36 2v108q19 -3 35.5 -3.5t30.5 -0.5q36 0 60.5 7.5t40 19.5t22 27t6.5 30q0 12 -6 24.5t-19.5 22.5t-36 16.5t-55.5 6.5 h-16.5t-18.5 -2v166q-92 17 -165.5 61t-125 109.5t-79 149t-27.5 179.5z" />
<glyph unicode="&#xe8;" horiz-adv-x="1079" d="M82 502q0 141 43.5 244t113.5 170.5t156.5 100t173.5 32.5q112 0 196 -36t139.5 -100.5t83.5 -155t28 -198.5v-115h-697q7 -139 85.5 -212.5t222.5 -73.5q86 0 167 27.5t140 70.5v-195q-20 -13 -54 -28t-80.5 -28t-104.5 -21.5t-124 -8.5q-114 0 -204.5 34.5 t-153.5 101.5t-97 165.5t-34 225.5zM293 1544h223l232 -325h-170zM319 618h467q0 53 -12 99t-38.5 79.5t-67.5 52.5t-99 19q-47 0 -88.5 -18t-74.5 -51t-55.5 -79t-31.5 -102z" />
<glyph unicode="&#xe9;" horiz-adv-x="1079" d="M82 502q0 141 43.5 244t113.5 170.5t156.5 100t173.5 32.5q112 0 196 -36t139.5 -100.5t83.5 -155t28 -198.5v-115h-697q7 -139 85.5 -212.5t222.5 -73.5q86 0 167 27.5t140 70.5v-195q-20 -13 -54 -28t-80.5 -28t-104.5 -21.5t-124 -8.5q-114 0 -204.5 34.5 t-153.5 101.5t-97 165.5t-34 225.5zM319 618h467q0 53 -12 99t-38.5 79.5t-67.5 52.5t-99 19q-47 0 -88.5 -18t-74.5 -51t-55.5 -79t-31.5 -102zM385 1219l231 325h224l-283 -325h-172z" />
<glyph unicode="&#xea;" horiz-adv-x="1079" d="M82 502q0 141 43.5 244t113.5 170.5t156.5 100t173.5 32.5q112 0 196 -36t139.5 -100.5t83.5 -155t28 -198.5v-115h-697q7 -139 85.5 -212.5t222.5 -73.5q86 0 167 27.5t140 70.5v-195q-20 -13 -54 -28t-80.5 -28t-104.5 -21.5t-124 -8.5q-114 0 -204.5 34.5 t-153.5 101.5t-97 165.5t-34 225.5zM246 1219l219 325h197l219 -325h-158l-164 213l-164 -213h-149zM319 618h467q0 53 -12 99t-38.5 79.5t-67.5 52.5t-99 19q-47 0 -88.5 -18t-74.5 -51t-55.5 -79t-31.5 -102z" />
<glyph unicode="&#xeb;" horiz-adv-x="1079" d="M82 502q0 141 43.5 244t113.5 170.5t156.5 100t173.5 32.5q112 0 196 -36t139.5 -100.5t83.5 -155t28 -198.5v-115h-697q7 -139 85.5 -212.5t222.5 -73.5q86 0 167 27.5t140 70.5v-195q-20 -13 -54 -28t-80.5 -28t-104.5 -21.5t-124 -8.5q-114 0 -204.5 34.5 t-153.5 101.5t-97 165.5t-34 225.5zM233 1335q0 26 9.5 47.5t26 37.5t39.5 25t50 9q26 0 48.5 -9t39 -25t26 -37.5t9.5 -47.5q0 -24 -9 -45.5t-25.5 -37t-39 -24.5t-49.5 -9t-50 9t-39.5 24.5t-26 37t-9.5 45.5zM319 618h467q0 53 -12 99t-38.5 79.5t-67.5 52.5t-99 19 q-47 0 -88.5 -18t-74.5 -51t-55.5 -79t-31.5 -102zM657 1335q0 26 9.5 47.5t26 37.5t39 25t48.5 9q27 0 50 -9t39.5 -25t26 -37.5t9.5 -47.5q0 -24 -9.5 -45.5t-26 -37t-39.5 -24.5t-50 -9t-49.5 9t-39 24.5t-25.5 37t-9 45.5z" />
<glyph unicode="&#xec;" horiz-adv-x="543" d="M-23 1544h224l231 -325h-170zM156 0v1024h233v-1024h-233z" />
<glyph unicode="&#xed;" horiz-adv-x="543" d="M96 1219l232 325h223l-283 -325h-172zM156 0v1024h233v-1024h-233z" />
<glyph unicode="&#xee;" horiz-adv-x="543" d="M-47 1219l219 325h197l219 -325h-158l-164 213l-164 -213h-149zM156 0v1024h233v-1024h-233z" />
<glyph unicode="&#xef;" horiz-adv-x="543" d="M-66 1335q0 26 9.5 47.5t26.5 37.5t39.5 25t49.5 9q26 0 48.5 -9t39 -25t26 -37.5t9.5 -47.5q0 -24 -9 -45.5t-25.5 -37t-39 -24.5t-49.5 -9t-49.5 9t-39.5 24.5t-26.5 37t-9.5 45.5zM156 0v1024h233v-1024h-233zM358 1335q0 26 9.5 47.5t26 37.5t39 25t48.5 9 q27 0 50 -9t39.5 -25t26 -37.5t9.5 -47.5q0 -24 -9.5 -45.5t-26 -37t-39.5 -24.5t-50 -9t-49.5 9t-39 24.5t-25.5 37t-9 45.5z" />
<glyph unicode="&#xf0;" horiz-adv-x="1169" d="M82 504q0 111 31.5 209.5t93 172t151.5 116t207 42.5q62 0 114.5 -22.5t84.5 -50.5l4 2q-19 35 -43 70t-50 68t-51.5 61t-48.5 47l-294 -148l-66 121l260 125q-25 21 -59.5 47.5t-71.5 53.5t-73.5 53t-65.5 45h284q15 -10 34.5 -24t40.5 -29.5t42 -31.5t39 -30l279 137 l67 -117l-241 -116q84 -73 146.5 -160t104.5 -183.5t63 -202t21 -216.5q0 -117 -33.5 -220t-98 -180t-159.5 -121.5t-219 -44.5q-123 0 -215 39.5t-154 109.5t-93 167t-31 211zM319 508q0 -81 19 -145t54 -107.5t85 -66.5t111 -23q59 0 106.5 24.5t81.5 70t52 110t18 143.5 q0 166 -62 256t-194 90q-64 0 -114 -24t-85 -69t-53.5 -110.5t-18.5 -148.5z" />
<glyph unicode="&#xf1;" horiz-adv-x="1198" d="M158 0v1024h231v-164h4q62 102 145.5 145.5t186.5 43.5q163 0 252.5 -104t89.5 -316v-629h-231v575q0 144 -48.5 214.5t-156.5 70.5q-51 0 -95.5 -20.5t-77 -57.5t-51 -88t-18.5 -112v-582h-231zM262 1219q0 54 11.5 101.5t35.5 82t60.5 54.5t85.5 20t85 -14t68 -31 q28 -14 58.5 -26.5t68.5 -12.5q23 0 38 9t24.5 23.5t13.5 33t4 38.5h119q0 -58 -12 -106t-36 -81.5t-59.5 -52t-81.5 -18.5q-51 0 -90.5 12t-74.5 29q-32 15 -60.5 27t-60.5 12q-25 0 -40.5 -9.5t-24.5 -24.5t-12 -32.5t-3 -33.5h-117z" />
<glyph unicode="&#xf2;" horiz-adv-x="1217" d="M82 500q0 135 40 237.5t111.5 172t171.5 104.5t220 35q124 0 219.5 -38t160 -107.5t97.5 -166.5t33 -215q0 -127 -38.5 -228.5t-108.5 -172.5t-168.5 -108.5t-219.5 -37.5q-120 0 -215.5 37t-163 105.5t-103.5 165.5t-36 217zM315 1544h224l231 -325h-170zM322 508 q0 -87 21.5 -151.5t60.5 -107.5t92.5 -64t117.5 -21q138 0 209.5 89.5t71.5 260.5q0 170 -75.5 258t-207.5 88q-62 0 -115 -21t-92 -64.5t-61 -110t-22 -156.5z" />
<glyph unicode="&#xf3;" horiz-adv-x="1217" d="M82 500q0 135 40 237.5t111.5 172t171.5 104.5t220 35q124 0 219.5 -38t160 -107.5t97.5 -166.5t33 -215q0 -127 -38.5 -228.5t-108.5 -172.5t-168.5 -108.5t-219.5 -37.5q-120 0 -215.5 37t-163 105.5t-103.5 165.5t-36 217zM322 508q0 -87 21.5 -151.5t60.5 -107.5 t92.5 -64t117.5 -21q138 0 209.5 89.5t71.5 260.5q0 170 -75.5 258t-207.5 88q-62 0 -115 -21t-92 -64.5t-61 -110t-22 -156.5zM444 1219l232 325h223l-283 -325h-172z" />
<glyph unicode="&#xf4;" horiz-adv-x="1217" d="M82 500q0 135 40 237.5t111.5 172t171.5 104.5t220 35q124 0 219.5 -38t160 -107.5t97.5 -166.5t33 -215q0 -127 -38.5 -228.5t-108.5 -172.5t-168.5 -108.5t-219.5 -37.5q-120 0 -215.5 37t-163 105.5t-103.5 165.5t-36 217zM289 1219l219 325h197l219 -325h-158 l-164 213l-164 -213h-149zM322 508q0 -87 21.5 -151.5t60.5 -107.5t92.5 -64t117.5 -21q138 0 209.5 89.5t71.5 260.5q0 170 -75.5 258t-207.5 88q-62 0 -115 -21t-92 -64.5t-61 -110t-22 -156.5z" />
<glyph unicode="&#xf5;" horiz-adv-x="1217" d="M82 500q0 135 40 237.5t111.5 172t171.5 104.5t220 35q124 0 219.5 -38t160 -107.5t97.5 -166.5t33 -215q0 -127 -38.5 -228.5t-108.5 -172.5t-168.5 -108.5t-219.5 -37.5q-120 0 -215.5 37t-163 105.5t-103.5 165.5t-36 217zM274 1219q0 54 11.5 101.5t35.5 82 t60.5 54.5t85.5 20t85.5 -14t68.5 -31q27 -14 57.5 -26.5t69.5 -12.5q22 0 37 9t24.5 23.5t13.5 33t4 38.5h119q0 -58 -12 -106t-36 -81.5t-59 -52t-81 -18.5q-51 0 -91 12t-75 29q-32 15 -60.5 27t-60.5 12q-24 0 -39.5 -9.5t-24.5 -24.5t-12.5 -32.5t-3.5 -33.5h-117z M322 508q0 -87 21.5 -151.5t60.5 -107.5t92.5 -64t117.5 -21q138 0 209.5 89.5t71.5 260.5q0 170 -75.5 258t-207.5 88q-62 0 -115 -21t-92 -64.5t-61 -110t-22 -156.5z" />
<glyph unicode="&#xf6;" horiz-adv-x="1217" d="M82 500q0 135 40 237.5t111.5 172t171.5 104.5t220 35q124 0 219.5 -38t160 -107.5t97.5 -166.5t33 -215q0 -127 -38.5 -228.5t-108.5 -172.5t-168.5 -108.5t-219.5 -37.5q-120 0 -215.5 37t-163 105.5t-103.5 165.5t-36 217zM272 1335q0 26 9.5 47.5t26.5 37.5t39.5 25 t49.5 9q26 0 48.5 -9t39 -25t26 -37.5t9.5 -47.5q0 -24 -9 -45.5t-25.5 -37t-39 -24.5t-49.5 -9t-49.5 9t-39.5 24.5t-26.5 37t-9.5 45.5zM322 508q0 -87 21.5 -151.5t60.5 -107.5t92.5 -64t117.5 -21q138 0 209.5 89.5t71.5 260.5q0 170 -75.5 258t-207.5 88 q-62 0 -115 -21t-92 -64.5t-61 -110t-22 -156.5zM696 1335q0 26 9.5 47.5t26 37.5t39 25t48.5 9q27 0 50 -9t39.5 -25t26 -37.5t9.5 -47.5q0 -24 -9.5 -45.5t-26 -37t-39.5 -24.5t-50 -9t-49.5 9t-39 24.5t-25.5 37t-9 45.5z" />
<glyph unicode="&#xf7;" horiz-adv-x="1438" d="M240 510v168h960v-168h-960zM596 195q0 26 9 49.5t25 41.5t39.5 29t51.5 11q56 0 88.5 -37t32.5 -92q0 -30 -10.5 -53t-27.5 -38.5t-38.5 -23.5t-44.5 -8q-26 0 -49 9.5t-40 25.5t-26.5 38.5t-9.5 47.5zM602 983q0 27 9 51t25.5 41.5t40 28t52.5 10.5q56 0 88.5 -35 t32.5 -92q0 -29 -10.5 -52.5t-28 -39.5t-39 -24.5t-43.5 -8.5q-27 0 -50 9.5t-40.5 25.5t-27 38.5t-9.5 47.5z" />
<glyph unicode="&#xf8;" horiz-adv-x="1217" d="M43 16q1 2 11.5 13t25.5 27t32 34.5t32 34.5t25.5 27.5t12.5 13.5q-48 66 -74 151t-26 185q0 135 40 237.5t112.5 171t172.5 103.5t220 35q96 0 171 -23t134 -65l153 161l101 -92l-156 -164q50 -65 77.5 -150t27.5 -188q0 -136 -40.5 -239.5t-112 -173.5t-169.5 -105 t-213 -35q-96 0 -177.5 25t-141.5 70l-138 -146zM313 508q0 -51 9 -94t24 -78l445 475q-71 57 -177 57q-64 0 -119.5 -21.5t-95.5 -65.5t-63 -112t-23 -161zM422 219q37 -31 86 -46t104 -15q144 0 218.5 91.5t74.5 264.5q0 56 -8.5 100.5t-24.5 81.5z" />
<glyph unicode="&#xf9;" horiz-adv-x="1198" d="M131 403v621h234v-592q0 -73 15.5 -124.5t44 -83t67.5 -46t86 -14.5q48 0 90.5 17.5t74 52t50 84.5t18.5 114v592h233v-1024h-233v154h-4q-21 -37 -51.5 -69.5t-69.5 -57t-86.5 -38.5t-101.5 -14q-178 0 -272.5 107.5t-94.5 320.5zM281 1544h223l231 -325h-170z" />
<glyph unicode="&#xfa;" horiz-adv-x="1198" d="M131 403v621h234v-592q0 -73 15.5 -124.5t44 -83t67.5 -46t86 -14.5q48 0 90.5 17.5t74 52t50 84.5t18.5 114v592h233v-1024h-233v154h-4q-21 -37 -51.5 -69.5t-69.5 -57t-86.5 -38.5t-101.5 -14q-178 0 -272.5 107.5t-94.5 320.5zM453 1219l231 325h223l-282 -325h-172z " />
<glyph unicode="&#xfb;" horiz-adv-x="1198" d="M131 403v621h234v-592q0 -73 15.5 -124.5t44 -83t67.5 -46t86 -14.5q48 0 90.5 17.5t74 52t50 84.5t18.5 114v592h233v-1024h-233v154h-4q-21 -37 -51.5 -69.5t-69.5 -57t-86.5 -38.5t-101.5 -14q-178 0 -272.5 107.5t-94.5 320.5zM274 1219l220 325h196l219 -325h-157 l-164 213l-164 -213h-150z" />
<glyph unicode="&#xfc;" horiz-adv-x="1198" d="M131 403v621h234v-592q0 -73 15.5 -124.5t44 -83t67.5 -46t86 -14.5q48 0 90.5 17.5t74 52t50 84.5t18.5 114v592h233v-1024h-233v154h-4q-21 -37 -51.5 -69.5t-69.5 -57t-86.5 -38.5t-101.5 -14q-178 0 -272.5 107.5t-94.5 320.5zM262 1335q0 26 9.5 47.5t26 37.5 t39.5 25t50 9q26 0 48.5 -9t39 -25t26 -37.5t9.5 -47.5q0 -24 -9 -45.5t-25.5 -37t-39 -24.5t-49.5 -9t-50 9t-39.5 24.5t-26 37t-9.5 45.5zM686 1335q0 26 9.5 47.5t26 37.5t39 25t48.5 9q27 0 50 -9t39.5 -25t26 -37.5t9.5 -47.5q0 -24 -9.5 -45.5t-26 -37t-39.5 -24.5 t-50 -9t-49.5 9t-39 24.5t-25.5 37t-9 45.5z" />
<glyph unicode="&#xfd;" horiz-adv-x="1047" d="M6 1024h260l240 -721q8 -25 13.5 -52.5t8.5 -45.5h4q5 15 10.5 42t14.5 56l248 721h235l-444 -1147q-70 -186 -170 -272t-231 -86q-34 0 -74 4t-68 12v197q22 -10 54.5 -17.5t58.5 -7.5q53 0 101 30t79 101l70 162zM379 1219l231 325h224l-283 -325h-172z" />
<glyph unicode="&#xfe;" horiz-adv-x="1235" d="M158 -471v1987h231v-656h4q27 42 60 76.5t74.5 59.5t92.5 39t113 14q109 0 188.5 -41t131 -111t76 -162.5t24.5 -195.5q0 -121 -30.5 -224.5t-90.5 -179t-148 -118t-202 -42.5q-53 0 -96.5 11.5t-79 32.5t-63.5 49t-50 61h-4v-600h-231zM387 424q0 -55 18.5 -103 t51.5 -82.5t78.5 -54.5t99.5 -20q64 0 115.5 24t87.5 71t55.5 118.5t19.5 165.5q0 74 -17.5 133t-50.5 100t-80.5 62.5t-107.5 21.5t-109.5 -22t-85 -62t-55.5 -96.5t-20 -124.5v-131z" />
<glyph unicode="&#xff;" horiz-adv-x="1047" d="M6 1024h260l240 -721q8 -25 13.5 -52.5t8.5 -45.5h4q5 15 10.5 42t14.5 56l248 721h235l-444 -1147q-70 -186 -170 -272t-231 -86q-34 0 -74 4t-68 12v197q22 -10 54.5 -17.5t58.5 -7.5q53 0 101 30t79 101l70 162zM190 1335q0 26 9.5 47.5t26.5 37.5t39.5 25t49.5 9 q26 0 48.5 -9t39 -25t26 -37.5t9.5 -47.5q0 -24 -9 -45.5t-25.5 -37t-39 -24.5t-49.5 -9t-49.5 9t-39.5 24.5t-26.5 37t-9.5 45.5zM614 1335q0 26 9.5 47.5t26 37.5t39 25t48.5 9q27 0 50 -9t39.5 -25t26 -37.5t9.5 -47.5q0 -24 -9.5 -45.5t-26 -37t-39.5 -24.5t-50 -9 t-49.5 9t-39 24.5t-25.5 37t-9 45.5z" />
<glyph unicode="&#x152;" horiz-adv-x="1905" d="M84 698q0 168 48 308t139 240.5t222.5 156t297.5 55.5q53 0 96.5 -3.5t79 -8t62.5 -8.5t48 -4h725v-205h-536v-412h497v-205h-497v-407h569v-205h-762q-29 0 -61.5 -4t-70 -8.5t-82.5 -8.5t-99 -4q-156 0 -281 54.5t-213 151t-135 229t-47 288.5zM336 715 q0 -119 33.5 -216.5t92 -167t138 -107.5t172.5 -38q77 0 137.5 11t114.5 28v985q-35 11 -100 24t-148 13q-100 0 -181.5 -41t-139 -112.5t-88.5 -168.5t-31 -210z" />
<glyph unicode="&#x153;" horiz-adv-x="1886" d="M82 498q0 135 40 238t111.5 172.5t169.5 105t215 35.5q72 0 133.5 -15t111 -41t87 -62.5t62.5 -78.5h4q57 96 154 146.5t221 50.5q101 0 181.5 -34.5t136 -98t85 -154t29.5 -201.5v-117h-697q7 -137 85.5 -211.5t222.5 -74.5q86 0 167 27.5t140 70.5v-195 q-21 -13 -56 -28.5t-81 -28t-101 -21t-117 -8.5q-131 0 -226.5 53t-155.5 152h-5q-66 -100 -169.5 -152.5t-237.5 -52.5q-113 0 -206.5 36t-161 103.5t-105 164.5t-37.5 219zM319 506q0 -87 22 -151.5t61.5 -106.5t93 -63t116.5 -21q135 0 208 88t73 258h2q0 171 -75 260.5 t-206 89.5q-63 0 -117 -21.5t-93.5 -65.5t-62 -110.5t-22.5 -156.5zM1126 618h467q0 57 -14 103t-41 79t-66.5 50.5t-89.5 17.5q-54 0 -98 -21t-76.5 -55.5t-53.5 -79.5t-28 -94z" />
<glyph unicode="&#x178;" horiz-adv-x="1178" d="M0 1434h270l289 -598q14 -29 20.5 -53t12.5 -40h2q5 22 12.5 43.5t20.5 47.5l299 600h252l-476 -914v-520h-237v514zM254 1683q0 26 9.5 47.5t26 37.5t39.5 25t50 9q26 0 48.5 -9t39 -25t26 -37.5t9.5 -47.5q0 -24 -9 -45.5t-25.5 -37t-39 -24.5t-49.5 -9t-50 9 t-39.5 24.5t-26 37t-9.5 45.5zM678 1683q0 26 9.5 47.5t26 37.5t39 25t48.5 9q27 0 49.5 -9t39.5 -25t26.5 -37.5t9.5 -47.5q0 -24 -9.5 -45.5t-26.5 -37t-39.5 -24.5t-49.5 -9t-49.5 9t-39 24.5t-25.5 37t-9 45.5z" />
<glyph unicode="&#x2c6;" horiz-adv-x="766" d="M61 1219l220 325h196l219 -325h-157l-164 213l-164 -213h-150z" />
<glyph unicode="&#x2dc;" horiz-adv-x="735" d="M33 1219q0 54 11.5 101.5t35.5 82t60 54.5t85 20q50 0 86 -14t68 -31q28 -14 58.5 -26.5t68.5 -12.5q22 0 37.5 9t25 23.5t13.5 33t4 38.5h119q0 -58 -12 -106t-36 -81.5t-59.5 -52t-81.5 -18.5q-51 0 -91 12t-75 29q-32 15 -60.5 27t-60.5 12q-24 0 -39.5 -9.5 t-24.5 -24.5t-12 -32.5t-3 -33.5h-117z" />
<glyph unicode="&#x2000;" horiz-adv-x="946" />
<glyph unicode="&#x2001;" horiz-adv-x="1892" />
<glyph unicode="&#x2002;" horiz-adv-x="946" />
<glyph unicode="&#x2003;" horiz-adv-x="1892" />
<glyph unicode="&#x2004;" horiz-adv-x="630" />
<glyph unicode="&#x2005;" horiz-adv-x="473" />
<glyph unicode="&#x2006;" horiz-adv-x="315" />
<glyph unicode="&#x2007;" horiz-adv-x="315" />
<glyph unicode="&#x2008;" horiz-adv-x="236" />
<glyph unicode="&#x2009;" horiz-adv-x="378" />
<glyph unicode="&#x200a;" horiz-adv-x="105" />
<glyph unicode="&#x2010;" horiz-adv-x="823" d="M141 469v170h547v-170h-547z" />
<glyph unicode="&#x2011;" horiz-adv-x="823" d="M141 469v170h547v-170h-547z" />
<glyph unicode="&#x2012;" horiz-adv-x="823" d="M141 469v170h547v-170h-547z" />
<glyph unicode="&#x2013;" horiz-adv-x="1024" d="M0 469v170h1024v-170h-1024z" />
<glyph unicode="&#x2014;" horiz-adv-x="2048" d="M0 469v170h2048v-170h-2048z" />
<glyph unicode="&#x2018;" horiz-adv-x="518" d="M102 1024l150 444h158l-107 -444h-201z" />
<glyph unicode="&#x2019;" horiz-adv-x="518" d="M111 1024l106 444h201l-154 -444h-153z" />
<glyph unicode="&#x201a;" horiz-adv-x="518" d="M92 -227l107 444h200l-153 -444h-154z" />
<glyph unicode="&#x201c;" horiz-adv-x="874" d="M102 1024l150 444h158l-107 -444h-201zM457 1024l153 444h156l-109 -444h-200z" />
<glyph unicode="&#x201d;" horiz-adv-x="874" d="M111 1024l106 444h201l-154 -444h-153zM465 1024l106 444h203l-151 -444h-158z" />
<glyph unicode="&#x201e;" horiz-adv-x="874" d="M92 -227l107 444h200l-153 -444h-154zM446 -227l107 444h203l-152 -444h-158z" />
<glyph unicode="&#x2022;" horiz-adv-x="850" d="M162 610q0 54 21 101.5t57 83.5t84 56.5t102 20.5t102 -20.5t83.5 -56.5t56 -83.5t20.5 -101.5t-20.5 -102t-56 -83.5t-83.5 -56t-102 -20.5t-102 20.5t-84 56t-57 83.5t-21 102z" />
<glyph unicode="&#x2026;" horiz-adv-x="1659" d="M135 117q0 29 11 54t30 43.5t44.5 29t55.5 10.5t56.5 -10.5t46 -29.5t30.5 -43.5t11 -53.5q0 -28 -11 -53t-30.5 -44t-45.5 -29.5t-57 -10.5q-30 0 -55.5 11t-44.5 30t-30 43.5t-11 52.5zM688 117q0 29 11 54t30 43.5t44.5 29t55.5 10.5t56.5 -10.5t46 -29.5t30.5 -43.5 t11 -53.5q0 -28 -11 -53t-30.5 -44t-45.5 -29.5t-57 -10.5q-30 0 -55.5 11t-44.5 30t-30 43.5t-11 52.5zM1241 117q0 29 11 54t30 43.5t44.5 29t55.5 10.5t56.5 -10.5t46 -29.5t30.5 -43.5t11 -53.5q0 -28 -11 -53t-30.5 -44t-45.5 -29.5t-57 -10.5t-56.5 11t-44.5 30 t-29.5 43.5t-10.5 52.5z" />
<glyph unicode="&#x202f;" horiz-adv-x="378" />
<glyph unicode="&#x2039;" horiz-adv-x="672" d="M70 537l315 344h215l-319 -344l321 -336h-217z" />
<glyph unicode="&#x203a;" horiz-adv-x="672" d="M70 201l319 336l-319 344h215l317 -344l-317 -336h-215z" />
<glyph unicode="&#x205f;" horiz-adv-x="473" />
<glyph unicode="&#x20ac;" d="M111 467v174h96q-2 9 -2 28v36q0 18 0.5 41t3.5 49h-98v172h125q27 108 75.5 198t119 155.5t162.5 101.5t206 36q85 0 148.5 -17t107.5 -40v-211q-45 34 -110 59t-150 25q-61 0 -114.5 -25t-96 -67.5t-73.5 -98t-48 -116.5h461v-172h-490q-2 -19 -3 -44t-1 -51 q0 -17 1 -31t1 -28h492v-174h-469q37 -147 118.5 -227t206.5 -80q85 0 151.5 24.5t123.5 61.5v-199q-51 -28 -126 -50t-165 -22q-119 0 -210.5 35t-158 99.5t-108.5 155.5t-62 202h-114z" />
<glyph unicode="&#x2122;" horiz-adv-x="1581" d="M78 1321v113h518v-113h-193v-549h-135v549h-190zM672 772v662h159l203 -467h4l209 467h154v-662h-127v451h-4l-199 -451h-82l-190 451h-4v-451h-123z" />
<glyph unicode="&#xe000;" horiz-adv-x="1025" d="M0 0v1025h1025v-1025h-1025z" />
<glyph unicode="&#xfb01;" horiz-adv-x="1255" d="M55 838v186h172v150q0 85 28.5 153t78 115t117 72.5t145.5 25.5q38 0 75.5 -5t59.5 -13v-195q-20 9 -48 17t-62 8q-76 0 -118 -48.5t-42 -142.5v-137h229v-186h-229v-838h-234v838h-172zM846 1386q0 29 11 54t29.5 43t44.5 28.5t56 10.5t56 -10.5t44.5 -29t29.5 -43 t11 -53.5q0 -27 -10.5 -51.5t-29 -42.5t-44.5 -28.5t-57 -10.5t-56.5 10.5t-44.5 28.5t-29.5 42.5t-10.5 51.5zM868 0v1024h232v-1024h-232z" />
<glyph unicode="&#xfb02;" horiz-adv-x="1255" d="M55 838v186h172v150q0 85 28.5 153t78 115t117 72.5t145.5 25.5q38 0 75.5 -5t59.5 -13v-195q-20 9 -48 17t-62 8q-76 0 -118 -48.5t-42 -142.5v-137h229v-186h-229v-838h-234v838h-172zM868 0v1516h232v-1516h-232z" />
</font>
</defs>
</svg>
